<svg width="156" height="156" version="1.1" viewBox="0 0 156 156" xmlns="http://www.w3.org/2000/svg" xmlns:xlink="http://www.w3.org/1999/xlink">
    <defs>
        <path id="corner" d="m22 0.785c5.43 0 10.9 2.07 15 6.21l24 24c1.19 1.19 2.57 2.08 4.04 2.7 1.05 1.89 2.35 3.69 3.96 5.3 1.53 1.53 3.22 2.8 5 3.82-1.32 0.255-2.66 0.391-4 0.391-5.43 0-10.9-2.07-15-6.21l-24-24c-4.96-4.96-13-4.96-18 0-4.96 4.96-4.96 13 0 18l24 24c4.15 4.15 6.21 9.57 6.21 15 0 1.34-0.135 2.67-0.388 3.99-1.03-1.78-2.3-3.47-3.82-4.99-1.62-1.62-3.41-2.94-5.32-3.99-0.617-1.45-1.5-2.82-2.68-4.01l-24-24c-4.15-4.15-6.21-9.57-6.21-15 0-5.43 2.07-10.9 6.21-15 4.15-4.15 9.57-6.21 15-6.21zm48 0c5.43 0 10.9 2.07 15 6.21 6.62 6.62 7.93 16.5 4 24.4-0.978 0.312-1.99 0.482-3 0.482-2.12 0-4.23-0.682-6-2.04 3.93-4.99 3.6-12.3-0.999-16.9-4.96-4.96-13-4.96-18 0l-7 7-6-6 7-7c4.15-4.15 9.57-6.21 15-6.21zm-32 23.2 6 6-14 14-6-6zm-24 24 6 6-7 7c-4.96 4.96-4.96 13 0 18 4.6 4.6 11.9 4.92 16.9 0.996 2 2.62 2.52 5.99 1.56 9-7.93 3.94-17.8 2.62-24.4-3.99-4.15-4.15-6.21-9.57-6.21-15 0-5.43 2.07-10.9 6.21-15zm7.71 16.8c5.52-0.0768 11.1 1.99 15.3 6.21 4.15 4.15 6.21 9.57 6.21 15 0 5.43-2.07 10.9-6.21 15l-7 7-6-6 7-7c4.96-4.96 4.96-13 0-18-4.6-4.6-11.9-4.92-16.9-0.999-1.36-1.77-2.04-3.88-2.04-6 0-1.01 0.169-2.02 0.482-3 2.87-1.42 5.99-2.17 9.13-2.22zm-20.5 17.2c1.02 1.79 2.29 3.48 3.82 5 1.61 1.61 3.41 2.92 5.3 3.96 0.62 1.46 1.51 2.84 2.7 4.04l48 48c1.19 1.19 2.57 2.08 4.04 2.7 1.05 1.89 2.35 3.69 3.96 5.3 1.53 1.53 3.22 2.8 5 3.82-1.32 0.255-2.66 0.391-4 0.391-5.43 0-10.9-2.07-15-6.21l-48-48c-4.15-4.15-6.21-9.57-6.21-15 0-1.34 0.136-2.68 0.391-4zm68.8 30.8c5.43 0 10.9 2.07 15 6.21 6.62 6.62 7.93 16.5 4 24.4-0.978 0.312-1.99 0.482-3 0.482-2.12 0-4.23-0.682-6-2.04 3.93-4.99 3.6-12.3-0.999-16.9-4.96-4.96-13-4.96-18 0l-7 7-6-6 7-7c4.15-4.15 9.57-6.21 15-6.21zm-56-0.787 6 6-7 7c-4.96 4.96-4.96 13 0 18 4.96 4.96 13 4.96 18 0l7-7 6 6-7 7c-4.15 4.15-9.57 6.21-15 6.21-5.43 0-10.9-2.07-15-6.21-4.15-4.15-6.21-9.57-6.21-15 0-5.43 2.07-10.9 6.21-15z" />
    </defs>
    <path d="m46 46v64h64v-64z" opacity="0" />
    <use transform="rotate(0 78 78)" xlink:href="#corner" />
    <use transform="rotate(180 78 78)" xlink:href="#corner" />
</svg>