<svg width="128" height="64" version="1.1" viewBox="0 0 128 64" xmlns="http://www.w3.org/2000/svg" xmlns:xlink="http://www.w3.org/1999/xlink" preserveAspectRatio="none">
    <defs>
        <path id="moitie" d="m46.4-0.6c-3.21-0.818-6.19-1.86-8.79-3.16l-0.261-0.133c8.04-3.38 17.5-5.16 27.1-5.11 3.72 2.27 5.56 4.6 6.37 6.71-8.25-0.711-16.9-0.198-24.4 1.7zm-53.8 45.7c-4.76-3.74-7.51-8.23-7.51-13.1 2.05-0.424 4.17-0.739 6.34-0.979-0.0537 0.325-0.145 0.647-0.145 0.974 0 3.12 2.42 6.67 7.64 9.92-0.299 0.162-0.586 0.325-0.904 0.485zm-3.7-22.5c2.31-2.83 5.49-5.43 9.68-7.52l28.8-14.4 6.22 3.11c0.204 0.102 0.413 0.195 0.619 0.295l-32.9 16.4c-0.812 0.406-1.55 0.818-2.25 1.24-3.45 0.0374-6.86 0.39-10.2 0.865zm18.6 23.9 29.5 14.7c3.2 1.6 6.96 2.79 10.9 3.68 0.163 2.4 0.998 4.67 2.27 6.82-5.76-1.04-11.3-2.69-16-5.07l-32.9-16.4 0.6-0.299c2.07-1.03 3.9-2.2 5.57-3.44z" />
        <g id="anneau">
            <use transform="rotate(0 64 32)" xlink:href="#moitie" />
            <use transform="rotate(180 64 32)" xlink:href="#moitie" />
        </g>
    </defs>
    <use transform="translate(-128)" xlink:href="#anneau" />
    <use transform="translate(-64 -32)" xlink:href="#anneau" />
    <use transform="translate(-64 32)" xlink:href="#anneau" />
    <use transform="translate(0 -64)" xlink:href="#anneau" />
    <use transform="translate(0 0)" xlink:href="#anneau" />
    <use transform="translate(0 64)" xlink:href="#anneau" />
    <use transform="translate(64 -32)" xlink:href="#anneau" />
    <use transform="translate(64 32)" xlink:href="#anneau" />
    <use transform="translate(128)" xlink:href="#anneau" />
</svg>