<svg width="128" height="128" version="1.1" xmlns="http://www.w3.org/2000/svg" xmlns:xlink="http://www.w3.org/1999/xlink">
    <path d="m16 1a15 15 0 0 0-15 15 15 15 0 0 0 15 15 15 15 0 0 0 15-15 15 15 0 0 0-15-15zm0 3.75a7.5 7.5 0 0 1 7.5 7.5 7.5 7.5 0 0 1-7.5 7.5 13.1 13.1 0 0 1 10 4.68 13.1 13.1 0 0 1-10 4.69 13.1 13.1 0 0 1-10-4.69 13.1 13.1 0 0 1 10-4.69 7.5 7.5 0 0 1-7.5-7.5 7.5 7.5 0 0 1 7.5-7.5z" />
    <view id="profile" viewBox="0 0 32 32" />
    <path d="m53.9 1c-2.33 0-4.66 0.887-6.44 2.66l-12 12a3.49 3.49 0 0 0-0.994 2.03l-1.41 10.9c-0.173 1.35 0.975 2.49 2.32 2.32l10.9-1.42a3.5 3.5 0 0 0 2.02-0.996l12-12c3.56-3.55 3.56-9.32 0-12.9-1.78-1.78-4.11-2.66-6.44-2.66zm-16.8 17.6c0.262-0.0174 0.535 0.0699 0.75 0.285l7.29 7.29c0.575 0.575 0.24 1.56-0.566 1.66l-7.66 0.998c0.0584-0.455-0.091-0.913-0.449-1.29-0.356-0.372-0.809-0.533-1.26-0.475l0.979-7.62c0.0646-0.503 0.473-0.823 0.91-0.852z" />
    <view id="edit" viewBox="32 0 32 32" />
    <path d="m72.5 1c-2.08 0-3.75 1.67-3.75 3.75-2.08 0-3.75 1.67-3.75 3.75v18.8c0 1.39 0.753 2.6 1.88 3.25v-20.1c0-1.55 1.26-2.81 2.81-2.81h23.4c-0.415-1.62-1.87-2.81-3.63-2.81h-9.5c0-2.08-1.67-3.75-3.75-3.75zm-2.81 7.5c-1.04 0-1.88 0.836-1.88 1.87v20.5c0.3 0.0768 0.613 0.121 0.938 0.121h22.5c2.08 0 3.75-1.67 3.75-3.75v-16.9c0-1.04-0.839-1.87-1.88-1.87z" />
    <view id="file" viewBox="64 0 32 32" />
    <path d="m112 1c-5.52-5e-6 -10 4.48-10 10a2.5 2.5 0 0 0 2.5 2.5 2.5 2.5 0 0 0 2.5-2.5c0-2.76 2.24-5 5-5s5 2.24 5 5-2.24 5-5 5a2.5 2.5 0 0 0-2.5 2.5v4a2.5 2.5 0 0 0 2.5 2.5 2.5 2.5 0 0 0 2.5-2.5v-1.81c4.31-1.11 7.5-5.03 7.5-9.69 1e-5 -5.52-4.48-10-10-10zm0 25a2.5 2.5 0 0 0-2.5 2.5 2.5 2.5 0 0 0 2.5 2.5 2.5 2.5 0 0 0 2.5-2.5 2.5 2.5 0 0 0-2.5-2.5z" />
    <view id="help" viewBox="96 0 32 32" />
    <path d="m5 34c-2.22 0-4 1.78-4 4v20c0 2.22 1.78 4 4 4h22c2.22 0 4-1.78 4-4v-20c0-2.22-1.78-4-4-4zm2 4h5c1.11 0 2 0.892 2 2v4c0 1.11-0.892 2-2 2h-5c-1.11 0-2-0.892-2-2v-4c0-1.11 0.892-2 2-2zm13 0h5c1.11 0 2 0.892 2 2v4c0 1.11-0.892 2-2 2h-5c-1.11 0-2-0.892-2-2v-4c0-1.11 0.892-2 2-2zm-13 12h5c1.11 0 2 0.892 2 2v4c0 1.11-0.892 2-2 2h-5c-1.11 0-2-0.892-2-2v-4c0-1.11 0.892-2 2-2zm13 0h5c1.11 0 2 0.892 2 2v4c0 1.11-0.892 2-2 2h-5c-1.11 0-2-0.892-2-2v-4c0-1.11 0.892-2 2-2z" />
    <view id="view" viewBox="0 32 32 32" />
    <path filter="#red-tint" d="m48 33c-11.5 0-15 1.9-15 3.82s3.47 3.82 15 3.82c11.5 0 15-1.9 15-3.82s-3.47-3.82-15-3.82zm-13 7.12 8.37 11.3c1.45 1.96 2.22 4.21 2.22 6.5v3.11a2.42 1.98 0 0 0 2.42 1.98h0.0477a2.42 1.98 0 0 0 2.42-1.98v-3.11c0-2.29 0.768-4.54 2.22-6.5l8.37-11.3c-0.244 0.0924-0.497 0.181-0.77 0.266-2.55 0.79-6.41 1.26-12.3 1.26s-9.71-0.466-12.3-1.26c-0.272-0.0841-0.526-0.173-0.77-0.266z" />
    <view id="filter" viewBox="32 32 32 32" />
    <path d="m75 33c-2.22 0-4 1.78-4 4s1.78 4 4 4h10c2.22 0 4-1.78 4-4s-1.78-4-4-4h-10zm-3 11c-2.22 0-4 1.78-4 4s1.78 4 4 4h16c2.22 0 4-1.78 4-4s-1.78-4-4-4h-16zm-3 11c-2.22 0-4 1.78-4 4s1.78 4 4 4h22c2.22 0 4-1.78 4-4s-1.78-4-4-4h-22z" />
    <view id="sort" viewBox="64 32 32 32" />
    <path d="m109 33c-3.09-1e-6 -6.17 1.18-8.53 3.53-4.71 4.71-4.71 12.3 0 17.1 3.97 3.97 10 4.6 14.7 1.86l6.66 6.67c1.18 1.18 3.09 1.18 4.27 0s1.18-3.09 0-4.27l-6.67-6.66c2.73-4.63 2.11-10.7-1.86-14.7-2.35-2.35-5.44-3.53-8.53-3.53zm0 6.03c1.54 0 3.09 0.589 4.26 1.77 2.35 2.35 2.35 6.17 0 8.53-2.35 2.35-6.17 2.35-8.53 0s-2.35-6.17 0-8.53c1.18-1.18 2.72-1.77 4.26-1.77z" />
    <view id="search" viewBox="96 32 32 32" />
    <path d="m14 65c-1.1 0-2 0.895-2 2h-7c-2.21 0-4 1.79-4 4v1c0 0.552 0.448 1 1 1h28c0.552 0 1-0.448 1-1v-1c0-2.21-1.79-4-4-4h-7c0-1.1-0.895-2-2-2zm-10 9c-0.536 4.81e-4 -0.955 0.462-0.904 0.996l1.53 16c0.215 2.26 2.11 3.98 4.38 3.98h1.77c0.546-2.63e-4 0.983-0.454 0.963-1l-0.695-19c-0.0201-0.558-0.479-1-1.04-1zm9 0c-0.548 0-0.987 0.453-0.971 1l0.557 19c0.0161 0.557 0.472 1 1.03 1h4.77c0.557 0 1.01-0.443 1.03-1l0.557-19c0.0163-0.547-0.423-1-0.971-1zm9 0c-0.559-2.5e-4 -1.02 0.442-1.04 1l-0.695 19c-0.0204 0.546 0.417 1 0.963 1h1.77c2.27-1.92e-4 4.16-1.72 4.38-3.98l1.53-16c0.0512-0.534-0.368-0.996-0.904-0.996z" />
    <view id="trash" viewBox="0 64 32 32" />
    <path d="m61.5 85.5c2.65e-4 -1.43-0.762-2.75-2-3.46l-1.59-0.919a4.6 4.6 0 0 0-2.3-0.616h-5.4a0.789 0.789 0 0 0-0.683 1.18l2.7 4.68a4.6 4.6 0 0 0 1.68 1.68l0.521 0.301c0.59 0.34 1.55 0.916 2.21 1.06 1.66 0.363 3.43-0.362 4.32-1.91 0.351-0.608 0.535-1.3 0.535-2zm-0.0098-11.3c-0.0451-0.599-0.225-1.18-0.525-1.7-1.1-1.91-3.55-2.57-5.46-1.46l-1.59 0.917a4.6 4.6 0 0 0-1.68 1.68l-2.7 4.68a0.789 0.789 0 0 0 0.683 1.18h5.4a4.6 4.6 0 0 0 2.3-0.616l1.59-0.919c1.33-0.768 2.11-2.23 1.99-3.76zm-9.52-5.2c0-2.21-1.79-4-4-4s-4 1.79-4 4v1.84a4.6 4.6 0 0 0 0.616 2.3l2.7 4.68a0.789 0.789 0 0 0 1.37 0l2.7-4.68a4.6 4.6 0 0 0 0.616-2.3zm-0.616 17.9-2.7-4.68a0.789 0.789 0 0 0-1.37 0l-2.7 4.68a4.6 4.6 0 0 0-0.616 2.3v1.84c0 2.21 1.79 4 4 4s4-1.79 4-4v-1.84a4.6 4.6 0 0 0-0.616-2.3zm-4.93-8.54-2.7-4.68a4.6 4.6 0 0 0-1.68-1.68l-1.59-0.917c-1.91-1.1-4.36-0.449-5.46 1.46-1.1 1.91-0.449 4.36 1.46 5.46l1.59 0.919a4.6 4.6 0 0 0 2.3 0.616h5.4a0.789 0.789 0 0 0 0.683-1.18zm-0.683 2.18h-5.4a4.6 4.6 0 0 0-2.3 0.616l-1.59 0.919c-1.91 1.1-2.57 3.55-1.46 5.46 1.1 1.91 3.55 2.57 5.46 1.46l1.59-0.917a4.6 4.6 0 0 0 1.68-1.68l2.7-4.68a0.789 0.789 0 0 0-0.683-1.18z" />
    <view id="new" viewBox="32 64 32 32" />
    <path d="m69 87c-2.22 0-4 1.78-4 4s1.78 4 4 4 4-1.78 4-4-1.78-4-4-4zm0-11c-2.22 0-4 1.78-4 4s1.78 4 4 4 4-1.78 4-4-1.78-4-4-4zm9-11c-2.22 0-4 1.78-4 4s1.78 4 4 4h13c2.22 0 4-1.78 4-4s-1.78-4-4-4zm0 11c-2.22 0-4 1.78-4 4s1.78 4 4 4h13c2.22 0 4-1.78 4-4s-1.78-4-4-4zm0 11c-2.22 0-4 1.78-4 4s1.78 4 4 4h13c2.22 0 4-1.78 4-4s-1.78-4-4-4zm-9-22c-2.22 0-4 1.78-4 4s1.78 4 4 4 4-1.78 4-4-1.78-4-4-4z" />
    <view id="view-list" viewBox="64 64 32 32" />
    <path d="m115 81h10c1.11 0 2 0.892 2 2v10c0 1.11-0.892 2-2 2h-10c-1.11 0-2-0.892-2-2v-10c0-1.11 0.892-2 2-2zm-16 0h10c1.11 0 2 0.892 2 2v10c0 1.11-0.892 2-2 2h-10c-1.11 0-2-0.892-2-2v-10c0-1.11 0.892-2 2-2zm16-16h10c1.11 0 2 0.892 2 2v10c0 1.11-0.892 2-2 2h-10c-1.11 0-2-0.892-2-2v-10c0-1.11 0.892-2 2-2zm-16 0h10c1.11 0 2 0.892 2 2v10c0 1.11-0.892 2-2 2h-10c-1.11 0-2-0.892-2-2v-10c0-1.11 0.892-2 2-2zm21 19c-2.22 0-4 1.78-4 4s1.78 4 4 4 4-1.78 4-4-1.78-4-4-4zm-16 0c-2.22 0-4 1.78-4 4s1.78 4 4 4 4-1.78 4-4-1.78-4-4-4zm16-16c-2.22 0-4 1.78-4 4s1.78 4 4 4 4-1.78 4-4-1.78-4-4-4zm-16 0c-2.22 0-4 1.78-4 4s1.78 4 4 4 4-1.78 4-4-1.78-4-4-4z" />
    <view id="view-grid" viewBox="96 64 32 32" />
</svg>