<svg fill="#000" width="256" height="256" version="1.1" xmlns="http://www.w3.org/2000/svg">
    <path d="m80 225c-1.11 0-2.11 0.448-2.84 1.17l-8 8c-0.724 0.724-1.17 1.72-1.17 2.84 0.914-1.21 2.37-2.01 4-2.01h3c1.67 0 3-1.33 3-3v-3c0-1.63 0.798-3.09 2.01-4zm2.99 0c-2.21 0-4 1.79-4 4v3c0 2.21-1.79 4-4 4h-3c-2.21 0-4 1.79-4 4v11c0 2.21 1.79 4 4 4h16c2.21 0 4-1.79 4-4v-22c0-2.21-1.79-4-4-4z" />
    <path d="m111 233a6 6 0 0 1 6 6 6 6 0 0 1-6 6 6 6 0 0 1-6-6 6 6 0 0 1 6-6z" />
    <g>
        <path d="m16 1a15 15 0 0 0-15 15 15 15 0 0 0 15 15 15 15 0 0 0 15-15 15 15 0 0 0-15-15zm0 3.75a7.5 7.5 0 0 1 7.5 7.5 7.5 7.5 0 0 1-7.5 7.5 13.1 13.1 0 0 1 10 4.68 13.1 13.1 0 0 1-10 4.69 13.1 13.1 0 0 1-10-4.69 13.1 13.1 0 0 1 10-4.69 7.5 7.5 0 0 1-7.5-7.5 7.5 7.5 0 0 1 7.5-7.5z" />
        <path d="m47.5 3.66-12 12c-0.547 0.548-0.897 1.26-0.994 2.03l-1.41 10.9c-0.173 1.35 0.975 2.49 2.32 2.32l10.9-1.42c0.765-0.1 1.47-0.451 2.02-0.996l12-12c3.56-3.55 3.56-9.32 0-12.9-1.78-1.78-4.11-2.66-6.42-2.63s-4.64 0.92-6.42 2.69zm-10.4 14.9c0.262-0.0174 0.535 0.0699 0.75 0.285l7.29 7.29c0.575 0.575 0.24 1.56-0.566 1.66l-7.66 0.998c0.0584-0.455-0.091-0.913-0.449-1.29-0.356-0.372-0.809-0.533-1.26-0.475l0.979-7.62c0.0646-0.503 0.473-0.823 0.91-0.852z" />
        <path d="m112 1c-5.52-5e-6 -10 4.48-10 10a2.5 2.5 0 0 0 2.5 2.5 2.5 2.5 0 0 0 2.5-2.5c0-2.76 2.24-5 5-5s5 2.24 5 5-2.24 5-5 5a2.5 2.5 0 0 0-2.5 2.5v4a2.5 2.5 0 0 0 2.5 2.5 2.5 2.5 0 0 0 2.5-2.5v-1.81c4.31-1.11 7.5-5.03 7.5-9.69 1e-5 -5.52-4.48-10-10-10zm0 25a2.5 2.5 0 0 0-2.5 2.5 2.5 2.5 0 0 0 2.5 2.5 2.5 2.5 0 0 0 2.5-2.5 2.5 2.5 0 0 0-2.5-2.5z" />
        <path d="m5 34c-2.22 0-4 1.78-4 4v20c0 2.22 1.78 4 4 4h22c2.22 0 4-1.78 4-4v-20c0-2.22-1.78-4-4-4zm2 4h5c1.11 0 2 0.892 2 2v4c0 1.11-0.892 2-2 2h-5c-1.11 0-2-0.892-2-2v-4c0-1.11 0.892-2 2-2zm13 0h5c1.11 0 2 0.892 2 2v4c0 1.11-0.892 2-2 2h-5c-1.11 0-2-0.892-2-2v-4c0-1.11 0.892-2 2-2zm-13 12h5c1.11 0 2 0.892 2 2v4c0 1.11-0.892 2-2 2h-5c-1.11 0-2-0.892-2-2v-4c0-1.11 0.892-2 2-2zm13 0h5c1.11 0 2 0.892 2 2v4c0 1.11-0.892 2-2 2h-5c-1.11 0-2-0.892-2-2v-4c0-1.11 0.892-2 2-2z" />
        <path d="m48 33c-11.5 0-15 1.9-15 3.82s3.47 3.82 15 3.82c11.5 0 15-1.9 15-3.82s-3.47-3.82-15-3.82zm-13 7.12 8.37 11.3c1.45 1.96 2.22 4.21 2.22 6.5v3.11a2.42 1.98 0 0 0 2.42 1.98h0.0477a2.42 1.98 0 0 0 2.42-1.98v-3.11c0-2.29 0.768-4.54 2.22-6.5l8.37-11.3c-0.244 0.0924-0.497 0.181-0.77 0.266-2.55 0.79-6.41 1.26-12.3 1.26s-9.71-0.466-12.3-1.26c-0.272-0.0841-0.526-0.173-0.77-0.266z" filter="#red-tint" />
        <path d="m75 33c-2.22 0-4 1.78-4 4s1.78 4 4 4h10c2.22 0 4-1.78 4-4s-1.78-4-4-4zm-3 11c-2.22 0-4 1.78-4 4s1.78 4 4 4h16c2.22 0 4-1.78 4-4s-1.78-4-4-4zm-3 11c-2.22 0-4 1.78-4 4s1.78 4 4 4h22c2.22 0 4-1.78 4-4s-1.78-4-4-4z" />
        <path d="m109 33c-3.09-1e-6 -6.17 1.18-8.53 3.53-4.71 4.71-4.71 12.3 0 17.1 3.97 3.97 10 4.6 14.7 1.86l6.66 6.67c1.18 1.18 3.09 1.18 4.27 0s1.18-3.09 0-4.27l-6.67-6.66c2.73-4.63 2.11-10.7-1.86-14.7-2.35-2.35-5.44-3.53-8.53-3.53zm0 6.03c1.54 0 3.09 0.589 4.26 1.77 2.35 2.35 2.35 6.17 0 8.53-2.35 2.35-6.17 2.35-8.53 0s-2.35-6.17 0-8.53c1.18-1.18 2.72-1.77 4.26-1.77z" />
        <path d="m14 65c-1.1 0-2 0.895-2 2h-7c-2.21 0-4 1.79-4 4v1c0 0.552 0.448 1 1 1h28c0.552 0 1-0.448 1-1v-1c0-2.21-1.79-4-4-4h-7c0-1.1-0.895-2-2-2zm-10 9c-0.536 4.81e-4 -0.955 0.462-0.904 0.996l1.53 16c0.215 2.26 2.11 3.98 4.38 3.98h1.77c0.546-2.63e-4 0.983-0.454 0.963-1l-0.695-19c-0.0201-0.558-0.479-1-1.04-1zm9 0c-0.548 0-0.987 0.453-0.971 1l0.557 19c0.0161 0.557 0.472 1 1.03 1h4.77c0.557 0 1.01-0.443 1.03-1l0.557-19c0.0163-0.547-0.423-1-0.971-1zm9 0c-0.559-2.5e-4 -1.02 0.442-1.04 1l-0.695 19c-0.0204 0.546 0.417 1 0.963 1h1.77c2.27-1.92e-4 4.16-1.72 4.38-3.98l1.53-16c0.0512-0.534-0.368-0.996-0.904-0.996z" />
        <path d="m61.5 85.5c2.65e-4 -1.43-0.762-2.75-2-3.46l-1.59-0.919a4.6 4.6 0 0 0-2.3-0.616h-5.4a0.789 0.789 0 0 0-0.683 1.18l2.7 4.68a4.6 4.6 0 0 0 1.68 1.68l0.521 0.301c0.59 0.34 1.55 0.916 2.21 1.06 1.66 0.363 3.43-0.362 4.32-1.91 0.351-0.608 0.535-1.3 0.535-2zm-0.0098-11.3c-0.0451-0.599-0.225-1.18-0.525-1.7-1.1-1.91-3.55-2.57-5.46-1.46l-1.59 0.917a4.6 4.6 0 0 0-1.68 1.68l-2.7 4.68a0.789 0.789 0 0 0 0.683 1.18h5.4a4.6 4.6 0 0 0 2.3-0.616l1.59-0.919c1.33-0.768 2.11-2.23 1.99-3.76zm-9.52-5.2c0-2.21-1.79-4-4-4s-4 1.79-4 4v1.84a4.6 4.6 0 0 0 0.616 2.3l2.7 4.68a0.789 0.789 0 0 0 1.37 0l2.7-4.68a4.6 4.6 0 0 0 0.616-2.3zm-0.616 17.9-2.7-4.68a0.789 0.789 0 0 0-1.37 0l-2.7 4.68a4.6 4.6 0 0 0-0.616 2.3v1.84c0 2.21 1.79 4 4 4s4-1.79 4-4v-1.84a4.6 4.6 0 0 0-0.616-2.3zm-4.93-8.54-2.7-4.68a4.6 4.6 0 0 0-1.68-1.68l-1.59-0.917c-1.91-1.1-4.36-0.449-5.46 1.46-1.1 1.91-0.449 4.36 1.46 5.46l1.59 0.919a4.6 4.6 0 0 0 2.3 0.616h5.4a0.789 0.789 0 0 0 0.683-1.18zm-0.683 2.18h-5.4a4.6 4.6 0 0 0-2.3 0.616l-1.59 0.919c-1.91 1.1-2.57 3.55-1.46 5.46 1.1 1.91 3.55 2.57 5.46 1.46l1.59-0.917a4.6 4.6 0 0 0 1.68-1.68l2.7-4.68a0.789 0.789 0 0 0-0.683-1.18z" />
        <path d="m69 87c-2.22 0-4 1.78-4 4s1.78 4 4 4 4-1.78 4-4-1.78-4-4-4zm0-11c-2.22 0-4 1.78-4 4s1.78 4 4 4 4-1.78 4-4-1.78-4-4-4zm9-11c-2.22 0-4 1.78-4 4s1.78 4 4 4h13c2.22 0 4-1.78 4-4s-1.78-4-4-4zm0 11c-2.22 0-4 1.78-4 4s1.78 4 4 4h13c2.22 0 4-1.78 4-4s-1.78-4-4-4zm0 11c-2.22 0-4 1.78-4 4s1.78 4 4 4h13c2.22 0 4-1.78 4-4s-1.78-4-4-4zm-9-22c-2.22 0-4 1.78-4 4s1.78 4 4 4 4-1.78 4-4-1.78-4-4-4z" />
        <path d="m115 81h10c1.11 0 2 0.892 2 2v10c0 1.11-0.892 2-2 2h-10c-1.11 0-2-0.892-2-2v-10c0-1.11 0.892-2 2-2zm-16 0h10c1.11 0 2 0.892 2 2v10c0 1.11-0.892 2-2 2h-10c-1.11 0-2-0.892-2-2v-10c0-1.11 0.892-2 2-2zm16-16h10c1.11 0 2 0.892 2 2v10c0 1.11-0.892 2-2 2h-10c-1.11 0-2-0.892-2-2v-10c0-1.11 0.892-2 2-2zm-16 0h10c1.11 0 2 0.892 2 2v10c0 1.11-0.892 2-2 2h-10c-1.11 0-2-0.892-2-2v-10c0-1.11 0.892-2 2-2zm21 19c-2.22 0-4 1.78-4 4s1.78 4 4 4 4-1.78 4-4-1.78-4-4-4zm-16 0c-2.22 0-4 1.78-4 4s1.78 4 4 4 4-1.78 4-4-1.78-4-4-4zm16-16c-2.22 0-4 1.78-4 4s1.78 4 4 4 4-1.78 4-4-1.78-4-4-4zm-16 0c-2.22 0-4 1.78-4 4s1.78 4 4 4 4-1.78 4-4-1.78-4-4-4z" />
        <g>
            <rect x="4" y="100" width="22" height="22" fill="#fff" opacity="0" />
            <path d="m3 97c-1.1 0-2 0.895-2 2v24c0 1.1 0.895 2 2 2 0 1.1 0.895 2 2 2h24c1.1 0 2-0.895 2-2v-24c0-1.1-0.895-2-2-2 0-1.1-0.895-2-2-2zm4 4h16c1.1 0 2 0.895 2 2v16c0 1.1-0.895 2-2 2h-16c-1.1 0-2-0.895-2-2v-16c0-1.1 0.895-2 2-2z" />
        </g>
        <g>
            <rect x="36" y="100" width="22" height="22" fill="#fff" opacity="0" />
            <path d="m58 98.9-14.5 14.6-7.5-7.57v7.07l7.5 7.57 14.5-14.6" />
            <path d="m35 97c-1.1 0-2 0.895-2 2v24c0 1.1 0.895 2 2 2 0 1.1 0.895 2 2 2h24c1.1 0 2-0.895 2-2v-24c0-1.1-0.895-2-2-2 0-1.1-0.895-2-2-2zm4 4h16c1.1 0 2 0.895 2 2v16c0 1.1-0.895 2-2 2h-16c-1.1 0-2-0.895-2-2v-16c0-1.1 0.895-2 2-2z" />
        </g>
        <path d="m70 98c-2.22 0-4 1.78-4 4s1.78 4 4 4 4-1.78 4-4-1.78-4-4-4zm10 0c-2.22 0-4 1.78-4 4s1.78 4 4 4 4-1.78 4-4-1.78-4-4-4zm10 0c-2.22 0-4 1.78-4 4s1.78 4 4 4 4-1.78 4-4-1.78-4-4-4zm-20 10c-2.22 0-4 1.78-4 4s1.78 4 4 4 4-1.78 4-4-1.78-4-4-4zm10 0c-2.22 0-4 1.78-4 4s1.78 4 4 4 4-1.78 4-4-1.78-4-4-4zm10 0c-2.22 0-4 1.78-4 4s1.78 4 4 4 4-1.78 4-4-1.78-4-4-4zm-20 10c-2.22 0-4 1.78-4 4s1.78 4 4 4 4-1.78 4-4-1.78-4-4-4zm10 0c-2.22 0-4 1.78-4 4s1.78 4 4 4 4-1.78 4-4-1.78-4-4-4zm10 0c-2.22 0-4 1.78-4 4s1.78 4 4 4 4-1.78 4-4-1.78-4-4-4z" />
        <path d="m122 98.9-14.5 14.6-7.5-7.57v7.07l7.5 7.57 14.5-14.6" />
        <path d="m70 3c-1.1 0-2 0.895-2 2 0 0.552-0.448 1-1 1-1.1 0-2 0.895-2 2v20c0 1.1 0.895 2 2 2s2-0.895 2-2v-13c0-2.76 2.24-5 5-5h16c0-2.21-1.79-4-4-4h-7c-0.552 0-1-0.448-1-1 0-1.1-0.895-2-2-2zm4 8c-2.21 0-4 1.79-4 4v13c0 1.66-1.34 3-3 3h24c2.21 0 4-1.79 4-4v-12c0-2.21-1.79-4-4-4z" />
    </g>
    <g>
        <path d="m88 161c-3.88 0-7 3.12-7 7l-4.8 2.4c-1.17-0.876-2.62-1.4-4.2-1.4-3.88 0-7 3.12-7 7s3.12 7 7 7c1.58 0 3.03-0.523 4.2-1.4l4.8 2.4c0 3.88 3.12 7 7 7s7-3.12 7-7-3.12-7-7-7c-1.58 0-3.03 0.523-4.2 1.4l-4.8-2.4 4.8-2.4c1.17 0.876 2.62 1.4 4.2 1.4 3.88 0 7-3.12 7-7s-3.12-7-7-7zm0 3.5c1.94 0 3.5 1.56 3.5 3.5s-1.56 3.5-3.5 3.5-3.5-1.56-3.5-3.5 1.56-3.5 3.5-3.5zm-16 8c1.94 0 3.5 1.56 3.5 3.5s-1.56 3.5-3.5 3.5-3.5-1.56-3.5-3.5 1.56-3.5 3.5-3.5zm16 8c1.94 0 3.5 1.56 3.5 3.5s-1.56 3.5-3.5 3.5-3.5-1.56-3.5-3.5 1.56-3.5 3.5-3.5z" />
        <g>
            <path d="m15 228a10.5 10.5 0 0 1 10.5 10.5 10.5 10.5 0 0 1-10.5 10.5 10.5 10.5 0 0 1-10.5-10.5 10.5 10.5 0 0 1 10.5-10.5z" opacity="0" />
            <path d="m15 225a14 14 0 0 0-14 14 14 14 0 0 0 5.17 10.8 14 14 0 0 0 10.8 5.17 14 14 0 0 0 14-14 14 14 0 0 0-5.15-10.8 14 14 0 0 0-10.8-5.15zm0 4a10 10 0 0 1 10 10 10 10 0 0 1-10 10 10 10 0 0 1-10-10 10 10 0 0 1 10-10z" />
        </g>
        <path d="m16 129c-2.22 0-4 1.78-4 4v7h-7c-2.22 0-4 1.78-4 4s1.78 4 4 4h7v7c0 2.22 1.78 4 4 4s4-1.78 4-4v-7h7c2.22 0 4-1.78 4-4s-1.78-4-4-4h-7v-7c0-2.22-1.78-4-4-4z" />
        <path d="m37.4 133c-1.57 1.57-1.57 4.09 0 5.66l4.95 4.95-4.95 4.95c-1.57 1.57-1.57 4.09 0 5.66s4.09 1.57 5.66 0l4.95-4.95 4.95 4.95c1.57 1.57 4.09 1.57 5.66 0s1.57-4.09 0-5.66l-4.95-4.95 4.95-4.95c1.57-1.57 1.57-4.09 0-5.66s-4.09-1.57-5.66 0l-4.95 4.95-4.95-4.95c-1.57-1.57-4.09-1.57-5.66 0z" />
        <path d="m69 140c-2.22 0-4 1.78-4 4s1.78 4 4 4h22c2.22 0 4-1.78 4-4s-1.78-4-4-4z" />
        <path d="m112 129c-2.22 0-4 1.78-4 4s1.78 4 4 4 4-1.78 4-4-1.78-4-4-4zm-11 11c-2.22 0-4 1.78-4 4s1.78 4 4 4h22c2.22 0 4-1.78 4-4s-1.78-4-4-4zm11 11c-2.22 0-4 1.78-4 4s1.78 4 4 4 4-1.78 4-4-1.78-4-4-4z" />
        <path d="m5 183c-2.22 0-4 1.78-4 4s1.78 4 4 4h22c2.22 0 4-1.78 4-4s-1.78-4-4-4z" />
        <path d="m37 161c-2.22 0-4 1.78-4 4v22c0 2.22 1.78 4 4 4h22c2.22 0 4-1.78 4-4v-22c0-2.22-1.78-4-4-4zm0 8h22v18h-22z" />
        <path d="m14.6 194-4.24 4.24c-0.781 0.781-0.781 2.05 0 2.83 0.781 0.781 2.05 0.781 2.83 0l0.828-0.828-4e-3 11.1c-2.5e-4 1.16 0.892 2.06 2 2.06s2-0.895 2-2v-2e-3h0.0215v-11.2l0.828 0.828c0.781 0.781 2.05 0.781 2.83 0 0.781-0.781 0.781-2.05 0-2.83l-4.24-4.24c-0.391-0.391-0.902-0.586-1.42-0.586-0.527 0-1.03 0.195-1.42 0.586zm-9.59 7.41c-2.22 0-4 1.78-4 4v14c0 2.22 1.78 4 4 4h22c2.22 0 4-1.78 4-4v-14c0-2.22-1.78-4-4-4h-4v4h4v14h-22v-14h4v-4z" />
        <path d="m46.6 215-4.24-4.24c-0.781-0.781-0.781-2.05 0-2.83 0.781-0.781 2.05-0.781 2.83 0l0.828 0.828-4e-3 -11.1c-2.5e-4 -1.16 0.892-2.06 2-2.06s2.01 0.895 2.01 2l0.0108 11.2 0.828-0.828c0.781-0.781 2.05-0.781 2.83 0 0.781 0.781 0.781 2.05 0 2.83l-4.24 4.24c-0.391 0.391-0.902 0.586-1.42 0.586-0.527 0-1.03-0.195-1.42-0.586zm-9.59-13.4c-2.22 0-4 1.78-4 4v14c0 2.22 1.78 4 4 4h22c2.22 0 4-1.78 4-4v-14c0-2.22-1.78-4-4-4h-4v4h4v14h-22v-14h4v-4z" />
        <path d="m87 193c-2.05 0-4.09 0.782-5.66 2.34l-2.77 2.77c1.7-0.242 3.45-0.045 5.07 0.584l0.525-0.525c1.56-1.56 4.09-1.56 5.66 0 1.56 1.56 1.56 4.09 0 5.66l-7 7c-1.56 1.56-4.09 1.56-5.65 0-0.516-0.516-0.86-1.14-1.04-1.79l-3.03 3.03c0.336 0.568 0.748 1.1 1.24 1.59 1.56 1.56 3.61 2.34 5.66 2.34s4.09-0.782 5.66-2.34l7-7c3.12-3.12 3.12-8.19 0-11.3-1.56-1.56-3.61-2.34-5.66-2.34zm-7 7c-2.05 0-4.09 0.782-5.66 2.34l-7 7c-3.12 3.12-3.12 8.19 0 11.3 1.56 1.56 3.61 2.34 5.66 2.34s4.09-0.782 5.66-2.34l2.77-2.77c-1.7 0.242-3.45 0.045-5.07-0.584l-0.525 0.525c-1.56 1.56-4.09 1.56-5.66 0-1.56-1.56-1.56-4.09 0-5.66l7-7c1.56-1.56 4.09-1.56 5.65 0 0.516 0.516 0.86 1.14 1.04 1.79l3.03-3.03c-0.336-0.568-0.748-1.1-1.24-1.59-1.56-1.56-3.61-2.34-5.66-2.34z" />
        <path d="m118 223c-2.05 0-4.09-0.782-5.66-2.34l-7-7c-3.12-3.12-3.12-8.19 0-11.3 0.999-0.999 2.2-1.68 3.47-2.04 0.0536 0.222 0.0859 0.454 0.0859 0.693v3.6c-0.257 0.159-0.501 0.347-0.725 0.57-1.56 1.56-1.56 4.09 0 5.66l7 7c0.781 0.781 1.8 1.17 2.83 1.17 1.02 0 2.05-0.391 2.83-1.17 1.56-1.56 1.56-4.09 0-5.66l-5.73-5.73v-5.31c0.555 0.332 1.08 0.737 1.56 1.21l7 7c3.12 3.12 3.12 8.19 0 11.3-1.56 1.56-3.61 2.34-5.66 2.34zm-12-4.1c-2.21 0-4.21-0.894-5.66-2.34-1.45-1.45-2.34-3.45-2.34-5.66v-9.9c1e-5 -4.42 3.58-8 8-8 2.21 0 4.21 0.894 5.66 2.34 1.45 1.45 2.34 3.45 2.34 5.66v9.9c-1e-5 1.26-0.294 2.46-0.816 3.52l-3.2-3.2c9e-3 -0.107 0.0156-0.215 0.0156-0.324v-9.9c2e-5 -2.21-1.79-4-4-4-2.21-4e-5 -4 1.79-4 4v9.9c-1e-5 1.1 0.446 2.1 1.17 2.83 0.511 0.511 1.16 0.879 1.89 1.05l3.65 3.65c-0.845 0.303-1.76 0.469-2.71 0.469z" />
        <g>
            <path d="m47 228a10.5 10.5 0 0 1 10.5 10.5 10.5 10.5 0 0 1-10.5 10.5 10.5 10.5 0 0 1-10.5-10.5 10.5 10.5 0 0 1 10.5-10.5z" opacity="0" />
            <path d="m47 225a14 14 0 0 0-14 14 14 14 0 0 0 5.17 10.8 14 14 0 0 0 10.8 5.17 14 14 0 0 0 14-14 14 14 0 0 0-5.15-10.8 14 14 0 0 0-10.8-5.15zm0 4a10 10 0 0 1 10 10 10 10 0 0 1-10 10 10 10 0 0 1-10-10 10 10 0 0 1 10-10z" />
            <path d="m47 233a6 6 0 0 1 6 6 6 6 0 0 1-6 6 6 6 0 0 1-6-6 6 6 0 0 1 6-6z" />
        </g>
    </g>
    <g>
        <path d="m144 5c-0.524 0-1.03 0.195-1.43 0.586l-4.24 4.24c-0.781 0.78-0.783 2.05-2e-3 2.83 0.78 0.781 2.05 0.781 2.83 0l0.83-0.826-0.01 11.7c0 0.552 0.224 1.05 0.586 1.41 0.362 0.362 0.862 0.586 1.41 0.586 1.1 0 2-0.895 2-2l0.0251-11.7 0.828 0.826c0.78 0.781 2.05 0.781 2.83 0 0.781-0.78 0.781-2.05 0-2.83l-4.24-4.24c-0.39-0.391-0.896-0.586-1.42-0.586z" />
        <path d="m187 16c0-0.524-0.195-1.03-0.586-1.43l-4.24-4.24c-0.78-0.781-2.05-0.783-2.83-2e-3 -0.781 0.78-0.781 2.05 0 2.83l0.826 0.83-11.7-0.01c-0.552 0-1.05 0.224-1.41 0.586-0.362 0.362-0.586 0.862-0.586 1.41 0 1.1 0.895 2 2 2l11.7 0.0251-0.826 0.828c-0.781 0.78-0.781 2.05 0 2.83 0.78 0.781 2.05 0.781 2.83 0l4.24-4.24c0.391-0.39 0.586-0.896 0.586-1.42z" />
        <path d="m208 27c-0.524 0-1.03-0.195-1.43-0.586l-4.24-4.24c-0.781-0.78-0.783-2.05-2e-3 -2.83 0.78-0.781 2.05-0.781 2.83 0l0.83 0.826-0.01-11.7c0-0.552 0.224-1.05 0.586-1.41 0.362-0.362 0.862-0.586 1.41-0.586 1.1 0 2 0.895 2 2l0.0251 11.7 0.828-0.826c0.78-0.781 2.05-0.781 2.83 0 0.781 0.78 0.781 2.05 0 2.83l-4.24 4.24c-0.39 0.391-0.896 0.586-1.42 0.586z" />
        <path d="m229 16c0 0.524 0.195 1.03 0.586 1.43l4.24 4.24c0.78 0.781 2.05 0.783 2.83 2e-3 0.781-0.78 0.781-2.05 0-2.83l-0.826-0.83 11.7 0.01c0.552 0 1.05-0.224 1.41-0.586 0.362-0.362 0.586-0.862 0.586-1.41 0-1.1-0.895-2-2-2l-11.7-0.0251 0.826-0.828c0.781-0.78 0.781-2.05 0-2.83-0.78-0.781-2.05-0.781-2.83 0l-4.24 4.24c-0.391 0.39-0.586 0.896-0.586 1.42z" />
        <path d="m152 40.2c-0.37-0.37-0.869-0.594-1.42-0.594l-6 0.0014c-1.1-4.39e-4 -2 0.894-2 2-7e-4 1.1 0.895 2 2 2l1.17 0.0028-8.29 8.27c-0.391 0.391-0.586 0.902-0.586 1.41 0 0.512 0.195 1.02 0.586 1.41 0.781 0.781 2.05 0.781 2.83 0l8.3-8.26 1e-3 1.17c-7.1e-4 1.1 0.895 2 2 2 1.1 7.07e-4 2-0.895 2-2l2.1e-4 -6c8.9e-4 -0.552-0.219-1.05-0.592-1.42z" />
        <path d="m184 55.8c-0.37 0.37-0.869 0.594-1.42 0.594l-6-0.0014c-1.1 4.39e-4 -2-0.894-2-2-7e-4 -1.1 0.895-2 2-2l1.17-0.0028-8.29-8.27c-0.391-0.391-0.586-0.902-0.586-1.41 0-0.512 0.195-1.02 0.586-1.41 0.781-0.781 2.05-0.781 2.83 0l8.3 8.26 1e-3 -1.17c-7.1e-4 -1.1 0.895-2 2-2 1.1-7.07e-4 2 0.895 2 2l2.1e-4 6c8.9e-4 0.552-0.219 1.05-0.592 1.42z" />
        <path d="m200 55.8c0.37 0.37 0.869 0.594 1.42 0.594l6-0.0014c1.1 4.39e-4 2-0.894 2-2 7e-4 -1.1-0.895-2-2-2l-1.17-0.0028 8.29-8.27c0.391-0.391 0.586-0.902 0.586-1.41 0-0.512-0.195-1.02-0.586-1.41-0.781-0.781-2.05-0.781-2.83 0l-8.3 8.26-1e-3 -1.17c7.1e-4 -1.1-0.895-2-2-2-1.1-7.07e-4 -2 0.895-2 2l-2.1e-4 6c-8.9e-4 0.552 0.219 1.05 0.592 1.42z" />
        <path d="m232 40.2c0.37-0.37 0.869-0.594 1.42-0.594l6 0.0014c1.1-4.39e-4 2 0.894 2 2 7e-4 1.1-0.895 2-2 2l-1.17 0.0028 8.29 8.27c0.391 0.391 0.586 0.902 0.586 1.41 0 0.512-0.195 1.02-0.586 1.41-0.781 0.781-2.05 0.781-2.83 0l-8.3-8.26-1e-3 1.17c7.1e-4 1.1-0.895 2-2 2-1.1 7.07e-4 -2-0.895-2-2l-2.1e-4 -6c-8.9e-4 -0.552 0.219-1.05 0.592-1.42z" />
        <path d="m144 65c-0.524 0-1.03 0.195-1.43 0.586l-4.24 4.24c-0.781 0.78-0.783 2.05-2e-3 2.83 0.78 0.781 2.05 0.781 2.83 0l0.83-0.826-0.01 4.64c0 0.552 0.224 1.05 0.586 1.41 0.362 0.362 0.862 0.586 1.41 0.586 1.1 0 2-0.895 2-2l0.0254-4.64 0.828 0.826c0.78 0.781 2.05 0.781 2.83 0 0.781-0.78 0.781-2.05 0-2.83l-4.24-4.24c-0.39-0.391-0.896-0.586-1.42-0.586zm-2.02 18.5-0.0117 4.64-0.828-0.824c-0.781-0.781-2.05-0.781-2.83 0-0.781 0.781-0.781 2.05 0 2.83l4.24 4.24c0.391 0.391 0.902 0.588 1.43 0.588 0.527 0 1.03-0.196 1.42-0.586h2e-3l4.24-4.24c0.781-0.781 0.781-2.05 0-2.83-0.781-0.781-2.05-0.781-2.83 0l-0.828 0.826-4e-3 -4.64c0-1.1-0.895-2-2-2-1.1-1e-5 -2 0.895-2 2z" />
        <path d="m191 80c0-0.524-0.195-1.03-0.586-1.43l-4.24-4.24c-0.78-0.781-2.05-0.783-2.83-2e-3 -0.781 0.78-0.781 2.05 0 2.83l0.826 0.83-4.64-0.01c-0.552 0-1.05 0.224-1.41 0.586-0.362 0.362-0.586 0.862-0.586 1.41 0 1.1 0.895 2 2 2l4.64 0.0254-0.826 0.828c-0.781 0.78-0.781 2.05 0 2.83 0.78 0.781 2.05 0.781 2.83 0l4.24-4.24c0.391-0.39 0.586-0.896 0.586-1.42zm-18.5-2.02-4.64-0.0117 0.824-0.828c0.781-0.781 0.781-2.05 0-2.83-0.781-0.781-2.05-0.781-2.83 0l-4.24 4.24c-0.391 0.391-0.588 0.902-0.588 1.43 0 0.527 0.196 1.03 0.586 1.42v2e-3l4.24 4.24c0.781 0.781 2.05 0.781 2.83 0 0.781-0.781 0.781-2.05 0-2.83l-0.826-0.828 4.64-4e-3c1.1 0 2-0.895 2-2 1e-5 -1.1-0.895-2-2-2z" />
        <path d="m219 69.4c-0.37-0.37-0.869-0.594-1.42-0.594l-6 0.0014c-1.1-4.39e-4 -2 0.894-2 2-7e-4 1.1 0.895 2 2 2l1.17 0.0028-3.29 3.27c-0.391 0.391-0.586 0.902-0.586 1.41 0 0.512 0.195 1.02 0.586 1.41 0.781 0.781 2.05 0.781 2.83 0l3.3-3.26 1e-3 1.17c-7.1e-4 1.1 0.895 2 2 2 1.1 7.07e-4 2-0.895 2-2l1e-5 -6c8.9e-4 -0.552-0.219-1.05-0.592-1.42zm-14.5 11.7-3.29 3.27-3e-3 -1.17c0-1.1-0.896-2-2-2-1.1 0-2 0.896-2 2l1e-3 5.99c1.3e-4 0.553 0.222 1.05 0.592 1.42 0.373 0.373 0.869 0.593 1.42 0.592l1e-3 0.0014 6-0.0014c1.1 2.69e-4 2-0.896 2-2-2.8e-4 -1.1-0.896-2-2-2l-1.17-0.0014 3.28-3.28c0.781-0.781 0.781-2.05 1e-5 -2.83-0.781-0.781-2.05-0.781-2.83 7e-6z" />
        <path d="m251 90.6c-0.37 0.37-0.869 0.594-1.42 0.594l-6-0.0014c-1.1 4.39e-4 -2-0.894-2-2-7e-4 -1.1 0.895-2 2-2l1.17-0.0028-3.29-3.27c-0.391-0.391-0.586-0.902-0.586-1.41 0-0.512 0.195-1.02 0.586-1.41 0.781-0.781 2.05-0.781 2.83 0l3.3 3.26 1e-3 -1.17c-7.1e-4 -1.1 0.895-2 2-2 1.1-7.07e-4 2 0.895 2 2l1e-5 6c8.9e-4 0.552-0.219 1.05-0.592 1.42zm-14.5-11.7-3.29-3.27-3e-3 1.17c0 1.1-0.896 2-2 2-1.1 0-2-0.896-2-2l1e-3 -5.99c1.3e-4 -0.553 0.222-1.05 0.592-1.42 0.373-0.373 0.869-0.593 1.42-0.592l1e-3 -0.0014 6 0.0014c1.1-2.69e-4 2 0.896 2 2-2.8e-4 1.1-0.896 2-2 2l-1.17 0.0014 3.28 3.28c0.781 0.781 0.781 2.05 1e-5 2.83-0.781 0.781-2.05 0.781-2.83-7e-6z" />
        <path d="m162 111c-0.362 0.362-0.586 0.862-0.586 1.41 0 1.1 0.895 2 2 2l4.63 8e-3 -0.826 0.829c-0.781 0.78-0.782 2.05-1e-3 2.83 0.78 0.781 2.05 0.781 2.83 0l4.24-4.24c0.39-0.39 0.586-0.898 0.586-1.43 0-0.524-0.195-1.03-0.586-1.43l-4.24-4.24c-0.78-0.781-2.05-0.781-2.83 0-0.781 0.78-0.78 2.05 1e-3 2.83l0.826 0.829-4.63 9e-3c-0.552 0-1.05 0.224-1.41 0.586zm13-13c-0.362 0.362-0.586 0.862-0.586 1.41l9e-3 4.64-0.829-0.826c-0.781-0.781-2.05-0.781-2.83 0-0.781 0.781-0.78 2.05 1e-3 2.83l4.24 4.24c0.391 0.391 0.902 0.586 1.43 0.586s1.04-0.195 1.43-0.586l4.24-4.24c0.781-0.781 0.781-2.05 0-2.83-0.781-0.781-2.05-0.781-2.83 0l-0.829 0.826-0.025-4.64c0-1.1-0.895-2-2-2-0.552 4e-6 -1.05 0.224-1.41 0.586zm-4.25 20.8c-0.781 0.78-0.781 2.05 0 2.83 0.78 0.781 2.05 0.781 2.83 0l0.827-0.824 0.0122 4.64c0 1.1 0.895 2 2 2 1.1 1e-5 2-0.895 2-2l4e-3 -4.64 0.829 0.826c0.78 0.781 2.05 0.78 2.83-1e-3 0.781-0.78 0.782-2.05 1e-3 -2.83l-4.24-4.24 1e-3 -1e-3c-0.39-0.391-0.898-0.586-1.43-0.586-0.524-1e-5 -1.04 0.196-1.43 0.587zm7.79-7.79c-0.391 0.391-0.586 0.902-0.586 1.43 1e-5 0.528 0.195 1.04 0.586 1.43l4.24 4.24c0.781 0.781 2.05 0.781 2.83 0 0.781-0.781 0.782-2.05 1e-3 -2.83l-0.826-0.829 4.63 2e-3c1.1-3e-5 2-0.895 2-2 0-1.1-0.895-2-2-2l-4.63-0.0187 0.826-0.829c0.781-0.781 0.781-2.05 0-2.83-0.781-0.781-2.05-0.781-2.83 0z" />
        <path d="m231 101c-0.512 1e-5 -1.02 0.195-1.41 0.586-0.781 0.781-0.781 2.05-1e-5 2.83l3.27 3.28-1.17 2e-3c-1.1-7e-4 -2 0.894-2 2-7.2e-4 1.1 0.896 2 2 2l6 2e-3c0.551 1.8e-4 1.05-0.221 1.42-0.594 0.37-0.37 0.594-0.869 0.594-1.42l-2e-3 -6c7e-4 -1.1-0.896-2-2-2-1.1-7.1e-4 -2 0.896-2 2l-2e-3 1.17-3.28-3.27c-0.391-0.391-0.902-0.586-1.41-0.586zm18.4-1.4e-4c-0.512 0-1.02 0.195-1.41 0.586l-3.27 3.29-2e-3 -1.17c0-1.1-0.896-2-2-2-1.1 0-2 0.896-2 2l-2e-3 6c1.4e-4 0.553 0.224 1.05 0.594 1.42 0.373 0.373 0.87 0.594 1.42 0.594h6c1.1 0 2-0.896 2-2 0-1.1-0.896-2-2-2l-1.17-2e-3 3.26-3.3c0.781-0.781 0.781-2.05 0-2.83-0.391-0.391-0.902-0.586-1.41-0.586zm-17.7 11.7c-1.1-7.1e-4 -2 0.896-2 2-7.1e-4 1.1 0.896 2 2 2l1.17 2e-3 -3.27 3.29c-0.781 0.781-0.781 2.05 1e-5 2.83 0.781 0.781 2.05 0.781 2.83 0l3.28-3.28 2e-3 1.17c-7e-4 1.1 0.896 2 2 2 1.1 7.1e-4 2-0.894 2-2v-6h1e-3c7e-4 -0.552-0.221-1.05-0.594-1.42-0.37-0.37-0.871-0.594-1.42-0.594zm11 0c-0.553 1.3e-4 -1.05 0.223-1.42 0.594-0.373 0.373-0.594 0.87-0.594 1.42l2e-3 6c0 1.1 0.894 2 2 2 1.1 0 2-0.894 2-2l2e-3 -1.17 3.27 3.28c0.781 0.781 2.05 0.781 2.83-2e-5 0.781-0.781 0.781-2.05 0-2.83l-3.26-3.29 1.17-2e-3c1.1 0 2-0.896 2-2 0-1.1-0.896-2-2-2z" />
        <path d="m206 112c0.512-1e-5 1.02-0.195 1.41-0.586 0.781-0.781 0.781-2.05 1e-5 -2.83l-3.27-3.28 1.17-2e-3c1.1 7e-4 2-0.894 2-2 7.2e-4 -1.1-0.896-2-2-2l-6-2e-3c-0.551-1.8e-4 -1.05 0.221-1.42 0.594-0.37 0.37-0.594 0.869-0.594 1.42l2e-3 6c-7e-4 1.1 0.896 2 2 2 1.1 7.1e-4 2-0.896 2-2l2e-3 -1.17 3.28 3.27c0.391 0.391 0.902 0.586 1.41 0.586zm5 1.4e-4c0.512 0 1.02-0.195 1.41-0.586l3.27-3.29 2e-3 1.17c0 1.1 0.896 2 2 2 1.1 0 2-0.896 2-2l2e-3 -6c-1.4e-4 -0.553-0.224-1.05-0.594-1.42-0.373-0.373-0.87-0.594-1.42-0.594h-6c-1.1 0-2 0.896-2 2 0 1.1 0.896 2 2 2l1.17 2e-3 -3.26 3.3c-0.781 0.781-0.781 2.05 0 2.83 0.391 0.391 0.902 0.586 1.41 0.586zm-5.69 11.7c1.1 7.1e-4 2-0.896 2-2 7.1e-4 -1.1-0.896-2-2-2l-1.17-2e-3 3.27-3.29c0.781-0.781 0.781-2.05-1e-5 -2.83-0.781-0.781-2.05-0.781-2.83 0l-3.28 3.28-2e-3 -1.17c7e-4 -1.1-0.896-2-2-2-1.1-7.1e-4 -2 0.894-2 2v6h-1e-3c-7e-4 0.552 0.221 1.05 0.594 1.42 0.37 0.37 0.871 0.594 1.42 0.594zm12.4 0c0.553-1.3e-4 1.05-0.223 1.42-0.594 0.373-0.373 0.594-0.87 0.594-1.42l-2e-3 -6c0-1.1-0.894-2-2-2-1.1 0-2 0.894-2 2l-2e-3 1.17-3.27-3.28c-0.781-0.781-2.05-0.781-2.83 2e-5 -0.781 0.781-0.781 2.05 0 2.83l3.26 3.29-1.17 2e-3c-1.1 0-2 0.896-2 2 0 1.1 0.896 2 2 2z" />
        <path d="m144 97c-0.524 0-1.03 0.195-1.43 0.586l-4.24 4.24c-0.781 0.78-0.783 2.05-2e-3 2.83 0.78 0.781 2.05 0.781 2.83 0l0.83-0.826-0.01 4.64c0 0.552 0.224 1.05 0.586 1.41 0.362 0.362 0.862 0.586 1.41 0.586 1.1 0 2-0.895 2-2l0.0254-4.64 0.828 0.826c0.78 0.781 2.05 0.781 2.83 0 0.781-0.78 0.781-2.05 0-2.83l-4.24-4.24c-0.39-0.391-0.896-0.586-1.42-0.586zm8.74 8.74c-0.512 0-1.03 0.195-1.42 0.586-0.781 0.78-0.781 2.05 0 2.83l0.826 0.828-4.63 0.0195c-1.1 0-2 0.895-2 2 0 1.1 0.895 2 2 2l4.63-2e-3 -0.826 0.828c-0.781 0.78-0.779 2.05 2e-3 2.83 0.78 0.781 2.05 0.781 2.83 0l4.24-4.24c0.391-0.39 0.586-0.896 0.586-1.42s-0.195-1.03-0.586-1.43l-4.24-4.24c-0.39-0.39-0.902-0.586-1.41-0.586zm-17.5 0.0117c-0.512 0-1.02 0.195-1.41 0.586l-4.24 4.24c-0.391 0.391-0.586 0.902-0.586 1.43 0 0.527 0.196 1.04 0.586 1.43l4.24 4.24c0.781 0.781 2.05 0.781 2.83 0 0.781-0.781 0.781-2.05 0-2.83l-0.826-0.828 4.63-8e-3c1.1 0 2-0.895 2-2 1e-5 -0.552-0.224-1.05-0.586-1.41-0.362-0.362-0.862-0.586-1.41-0.586l-4.63-8e-3 0.826-0.83c0.781-0.781 0.781-2.05 0-2.83-0.39-0.39-0.902-0.586-1.41-0.586zm8.76 7.79c-1.1-1e-5 -2 0.895-2 2l-0.0117 4.64-0.828-0.824c-0.781-0.781-2.05-0.781-2.83 0-0.781 0.781-0.781 2.05 0 2.83l4.24 4.24c0.391 0.391 0.902 0.588 1.43 0.588 0.527 0 1.03-0.196 1.42-0.586h2e-3l4.24-4.24c0.781-0.781 0.781-2.05 0-2.83-0.781-0.781-2.05-0.781-2.83 0l-0.828 0.826-4e-3 -4.64c0-1.1-0.895-2-2-2z" />
    </g>
    <g>
        <path d="m129 154c0 2.22 1.78 4 4 4h21.9c2.22 0 4-1.78 4-4 0-0.733-0.193-1.42-0.533-2.01 0 0-10.6-18.2-10.9-18.8-0.69-1.19-1.98-1.99-3.47-1.99s-2.78 0.798-3.46 1.99c-0.34 0.589-10.9 18.8-10.9 18.8-0.34 0.589-0.535 1.27-0.535 2.01z" />
        <path d="m166 129c-2.22 0-4 1.78-4 4v21.9c0 2.22 1.78 4 4 4 0.733 0 1.42-0.193 2.01-0.533 0 0 18.2-10.6 18.8-10.9 1.19-0.69 1.99-1.98 1.99-3.47s-0.798-2.78-1.99-3.46c-0.589-0.34-18.8-10.9-18.8-10.9-0.589-0.34-1.27-0.535-2.01-0.535z" />
        <path d="m223 134c0-2.22-1.78-4-4-4h-21.9c-2.22 0-4 1.78-4 4 0 0.733 0.193 1.42 0.533 2.01 0 0 10.6 18.2 10.9 18.8 0.69 1.19 1.98 1.99 3.47 1.99s2.78-0.798 3.46-1.99c0.34-0.589 10.9-18.8 10.9-18.8 0.34-0.589 0.535-1.27 0.535-2.01z" />
        <path d="m250 159c2.22 0 4-1.78 4-4v-21.9c0-2.22-1.78-4-4-4-0.733 0-1.42 0.193-2.01 0.533 0 0-18.2 10.6-18.8 10.9-1.19 0.69-1.99 1.98-1.99 3.47s0.798 2.78 1.99 3.46c0.589 0.34 18.8 10.9 18.8 10.9 0.589 0.34 1.27 0.535 2.01 0.535z" />
        <path d="m129 186c0 2.22 1.78 4 4 4h21.9c2.22 0 4-1.78 4-4 0-0.733-0.193-1.42-0.533-2.01 0 0-10.6-18.2-10.9-18.8-0.69-1.19-1.98-1.99-3.47-1.99s-2.78 0.798-3.46 1.99c-0.34 0.589-10.9 18.8-10.9 18.8-0.34 0.589-0.535 1.27-0.535 2.01zm4.5-0.876 9.93-17.1a0.582 0.582 0 0 1 1.01 3.7e-4l9.92 17.1a0.575 0.575 0 0 1-0.498 0.864l-19.9-0.0106a0.575 0.575 0 0 1-0.497-0.865z" />
        <path d="m166 161c-2.22 0-4 1.78-4 4v21.9c0 2.22 1.78 4 4 4 0.733 0 1.42-0.193 2.01-0.533 0 0 18.2-10.6 18.8-10.9 1.19-0.69 1.99-1.98 1.99-3.47s-0.798-2.78-1.99-3.46c-0.589-0.34-18.8-10.9-18.8-10.9-0.589-0.34-1.27-0.535-2.01-0.535zm0.876 4.5 17.1 9.93a0.582 0.582 0 0 1-3.7e-4 1.01l-17.1 9.92a0.575 0.575 0 0 1-0.864-0.498l0.0106-19.9a0.575 0.575 0 0 1 0.865-0.497z" />
        <path d="m193 166c0-2.22 1.78-4 4-4h21.9c2.22 0 4 1.78 4 4 0 0.733-0.193 1.42-0.533 2.01 0 0-10.6 18.2-10.9 18.8-0.69 1.19-1.98 1.99-3.47 1.99s-2.78-0.798-3.46-1.99c-0.34-0.589-10.9-18.8-10.9-18.8-0.34-0.589-0.535-1.27-0.535-2.01zm4.5 0.876 9.93 17.1a0.582 0.582 0 0 0 1.01-3.7e-4l9.92-17.1a0.575 0.575 0 0 0-0.498-0.864l-19.9 0.0106a0.575 0.575 0 0 0-0.497 0.865z" />
        <path d="m250 191c2.22 0 4-1.78 4-4v-21.9c0-2.22-1.78-4-4-4-0.733 0-1.42 0.193-2.01 0.533 0 0-18.2 10.6-18.8 10.9-1.19 0.69-1.99 1.98-1.99 3.47s0.798 2.78 1.99 3.46c0.589 0.34 18.8 10.9 18.8 10.9 0.589 0.34 1.27 0.535 2.01 0.535zm-0.876-4.5-17.1-9.93a0.582 0.582 0 0 1 3.7e-4 -1.01l17.1-9.92a0.575 0.575 0 0 1 0.864 0.498l-0.0106 19.9a0.575 0.575 0 0 1-0.865 0.497z" />
        <path d="m155 193c-0.733 0-1.42 0.193-2.01 0.533 0 0-5.82 3.38-11.1 6.47-0.477 0.278-0.865 0.95-0.865 1.5v12.9c0 0.552 0.387 1.22 0.865 1.5 5.31 3.09 11.1 6.47 11.1 6.47 0.589 0.34 1.27 0.535 2.01 0.535 2.22 0 4-1.78 4-4v-21.9c0-2.22-1.78-4-4-4zm-22 0.939c-2.22 0-4 1.78-4 4v20c0 2.22 1.78 4 4 4s4-1.78 4-4v-20c0-2.22-1.78-4-4-4z" />
        <path d="m165 193c0.733 0 1.42 0.193 2.01 0.533 0 0 5.82 3.38 11.1 6.47 0.477 0.278 0.865 0.95 0.865 1.5v12.9c0 0.552-0.387 1.22-0.865 1.5-5.31 3.09-11.1 6.47-11.1 6.47-0.589 0.34-1.27 0.535-2.01 0.535-2.22 0-4-1.78-4-4v-21.9c0-2.22 1.78-4 4-4zm22 0.939c2.22 0 4 1.78 4 4v20c0 2.22-1.78 4-4 4s-4-1.78-4-4v-20c0-2.22 1.78-4 4-4z" />
        <path d="m129 246c1e-5 1.02 0.391 2.05 1.17 2.83 1.56 1.56 4.09 1.56 5.66 0l8.17-8.17c2.95 2.95 7.01 7.01 8.17 8.17 1.56 1.56 4.09 1.56 5.66 0 1.56-1.56 1.56-4.09 0-5.66l-11-11c-1.56-1.56-4.09-1.56-5.66-1e-5l-11 11c-0.781 0.781-1.17 1.8-1.17 2.83z" />
        <path d="m170 225c-1.02 1e-5 -2.05 0.391-2.83 1.17-1.56 1.56-1.56 4.09 0 5.66l8.17 8.17c-2.95 2.95-7.01 7.01-8.17 8.17-1.56 1.56-1.56 4.09 0 5.66 1.56 1.56 4.09 1.56 5.66 0l11-11c1.56-1.56 1.56-4.09 1e-5 -5.66l-11-11c-0.781-0.781-1.8-1.17-2.83-1.17z" />
        <path d="m223 234c-1e-5 -1.02-0.391-2.05-1.17-2.83-1.56-1.56-4.09-1.56-5.66 0l-8.17 8.17c-2.95-2.95-7.01-7.01-8.17-8.17-1.56-1.56-4.09-1.56-5.66 0-1.56 1.56-1.56 4.09 0 5.66l11 11c1.56 1.56 4.09 1.56 5.66 1e-5l11-11c0.781-0.781 1.17-1.8 1.17-2.83z" />
        <path d="m246 255c1.02-1e-5 2.05-0.391 2.83-1.17 1.56-1.56 1.56-4.09 0-5.66l-8.17-8.17c2.95-2.95 7.01-7.01 8.17-8.17 1.56-1.56 1.56-4.09 0-5.66-1.56-1.56-4.09-1.56-5.66 0l-11 11c-1.56 1.56-1.56 4.09-1e-5 5.66l11 11c0.781 0.781 1.8 1.17 2.83 1.17z" />
        <path d="m198 194c-2.22 0-4 1.78-4 4v20c0 2.22 1.78 4 4 4h20c2.22 0 4-1.78 4-4v-20c0-2.22-1.78-4-4-4z" />
        <path d="m230 194c-2.22 0-4 1.78-4 4v20c0 2.22 1.78 4 4 4h4c2.22 0 4-1.78 4-4v-20c0-2.22-1.78-4-4-4zm16 0c-2.22 0-4 1.78-4 4v20c0 2.22 1.78 4 4 4h4c2.22 0 4-1.78 4-4v-20c0-2.22-1.78-4-4-4z" />
    </g>
    <defs>
        <view id="profile" viewBox="0 0 32 32" />
        <view id="edit" viewBox="32 0 32 32" />
        <view id="folder" viewBox="64 0 32 32" />
        <view id="help" viewBox="96 0 32 32" />
        <view id="view" viewBox="0 32 32 32" />
        <view id="filter" viewBox="32 32 32 32" />
        <view id="sort" viewBox="64 32 32 32" />
        <view id="search" viewBox="96 32 32 32" />
        <view id="trash" viewBox="0 64 32 32" />
        <view id="new" viewBox="32 64 32 32" />
        <view id="view-list" viewBox="64 64 32 32" />
        <view id="view-grid" viewBox="96 64 32 32" />
        <view id="checkbox-off" viewBox="0 96 32 32" />
        <view id="checkbox-on" viewBox="32 96 32 32" />
        <view id="grip" viewBox="64 96 32 32" />
        <view id="check" viewBox="96 96 32 32" />
        <view id="plus" viewBox="0 128 32 32" />
        <view id="times" viewBox="32 128 32 32" />
        <view id="minus" viewBox="64 128 32 32" />
        <view id="divide" viewBox="96 128 32 32" />
        <view id="minimize" viewBox="0 160 32 32" />
        <view id="maximize" viewBox="32 160 32 32" />
        <view id="share" viewBox="64 160 32 32" />
        <view id="upload" viewBox="0 192 32 32" />
        <view id="download" viewBox="32 192 32 32" />
        <view id="link" viewBox="64 192 32 32" />
        <view id="radio-off" viewBox="0 224 32 32" />
        <view id="radio-on" viewBox="32 224 32 32" />
        <view id="file" viewBox="64 224 32 32" />
        <view id="radio-bullet" viewBox="96 224 32 32" />
        <view id="n" viewBox="128 0 32 32" />
        <view id="e" viewBox="160 0 32 32" />
        <view id="s" viewBox="192 0 32 32" />
        <view id="w" viewBox="224 0 32 32" />
        <view id="ne" viewBox="128 32 32 32" />
        <view id="se" viewBox="160 32 32 32" />
        <view id="sw" viewBox="192 32 32 32" />
        <view id="nw" viewBox="224 32 32 32" />
        <view id="n-s" viewBox="128 64 32 32" />
        <view id="w-e" viewBox="160 64 32 32" />
        <view id="ne-sw" viewBox="192 64 32 32" />
        <view id="nw-se" viewBox="224 64 32 32" />
        <view id="move" viewBox="128 96 32 32" />
        <view id="move-in" viewBox="160 96 32 32" />
        <view id="move-diag" viewBox="192 96 32 32" />
        <view id="move-in-diag" viewBox="224 96 32 32" />
        <view id="triangle-n" viewBox="128 128 32 32" />
        <view id="triangle-e" viewBox="160 128 32 32" />
        <view id="triangle-s" viewBox="192 128 32 32" />
        <view id="triangle-w" viewBox="224 128 32 32" />
        <view id="triangle-outline-n" viewBox="128 160 32 32" />
        <view id="triangle-outline-e" viewBox="160 160 32 32" />
        <view id="triangle-outline-s" viewBox="192 160 32 32" />
        <view id="triangle-outline-w" viewBox="224 160 32 32" />
        <view id="rewind" viewBox="128 192 32 32" />
        <view id="ffwd" viewBox="160 192 32 32" />
        <view id="stop" viewBox="192 192 32 32" />
        <view id="pause" viewBox="224 192 32 32" />
        <view id="ud" viewBox="128 224 32 32" />
        <view id="gt" viewBox="160 224 32 32" />
        <view id="dd" viewBox="192 224 32 32" />
        <view id="lt" viewBox="224 224 32 32" />
        <view id="test" viewBox="128 0 32 32" />
    </defs>
</svg>