<svg width="256" height="256" version="1.1" viewBox="0 0 8192 8192" xmlns="http://www.w3.org/2000/svg" xmlns:xlink="http://www.w3.org/1999/xlink">
    <defs>
        <path id="path-profile" d="m512 992a480 480 0 0 1-480-480 480 480 0 0 1 480-480 480 480 0 0 1 480 480 480 480 0 0 1-480 480zm0-120a240 240 0 0 0 240-240 240 240 0 0 0-240-240 419 419 0 0 0 320-150 419 419 0 0 0-320-150 419 419 0 0 0-320 150 419 419 0 0 0 320 150 240 240 0 0 0-240 240 240 240 0 0 0 240 240z" />
        <path id="path-edit" d="m496 907-384-384c-17.5-17.5-28.7-40.3-31.8-65l-45.1-349c-5.54-43.2 31.2-79.7 74.2-74.2l349 45.4c24.5 3.2 47 14.4 64.6 31.9l384 384c114 114 114 298 0 413-57 57-132 85.1-205 84.2s-148-29.4-205-86.1zm-333-477c8.38 0.557 17.1-2.24 24-9.12l233-233c18.4-18.4 7.68-49.9-18.1-53.1l-245-31.9c1.87 14.6-2.91 29.2-14.4 41.3-11.4 11.9-25.9 17.1-40.3 15.2l31.3 244c2.07 16.1 15.1 26.3 29.1 27.3z" />
        <path id="path-folder" d="m192 928c-35.2 0-64-28.6-64-64 0-17.7-14.3-32-32-32-35.2 0-64-28.6-64-64v-640c0-35.2 28.6-64 64-64s64 28.6 64 64v416c0 88.3 71.7 160 160 160h512c0 70.7-57.3 128-128 128h-224c-17.7 0-32 14.3-32 32 0 35.2-28.6 64-64 64zm128-256c-70.7 0-128-57.3-128-128v-416c0-53.1-42.9-96-96-96h768c70.7 0 128 57.3 128 128v384c0 70.7-57.3 128-128 128z" />
        <path id="path-help" d="m512 992c-177 1.6e-4 -320-143-320-320a80 80 0 0 1 80-80 80 80 0 0 1 80 80c0 88.3 71.7 160 160 160s160-71.7 160-160-71.7-160-160-160a80 80 0 0 1-80-80v-128a80 80 0 0 1 80-80 80 80 0 0 1 80 80v57.9c138 35.5 240 161 240 310 3e-4 177-143 320-320 320zm0-800a80 80 0 0 1-80-80 80 80 0 0 1 80-80 80 80 0 0 1 80 80 80 80 0 0 1-80 80z" />
        <path id="path-view" d="m160 960c-71 0-128-57-128-128v-640c0-71 57-128 128-128h704c71 0 128 57 128 128v640c0 71-57 128-128 128zm64-128h160c35.5 0 64-28.5 64-64v-128c0-35.5-28.5-64-64-64h-160c-35.5 0-64 28.5-64 64v128c0 35.5 28.5 64 64 64zm416 0h160c35.5 0 64-28.5 64-64v-128c0-35.5-28.5-64-64-64h-160c-35.5 0-64 28.5-64 64v128c0 35.5 28.5 64 64 64zm-416-384h160c35.5 0 64-28.5 64-64v-128c0-35.5-28.5-64-64-64h-160c-35.5 0-64 28.5-64 64v128c0 35.5 28.5 64 64 64zm416 0h160c35.5 0 64-28.5 64-64v-128c0-35.5-28.5-64-64-64h-160c-35.5 0-64 28.5-64 64v128c0 35.5 28.5 64 64 64z" />
        <path id="path-filter" d="m512 992c-368 0-480-60.8-480-122s111-122 480-122c368 0 480 60.8 480 122s-111 122-480 122zm-416-228 268-362c46.4-62.7 71-135 71-208v-99.5a77.4 63.4 0 0 1 77.4-63.4h1.53a77.4 63.4 0 0 1 77.4 63.4v99.5c0 73.3 24.6 145 71 208l268 362c-7.81-2.96-15.9-5.79-24.6-8.51-81.6-25.3-205-40.3-394-40.3s-311 14.9-394 40.3c-8.7 2.69-16.8 5.54-24.6 8.51z" filter="#red-tint" />
        <path id="path-sort" d="m352 992c-71 0-128-57-128-128s57-128 128-128h320c71 0 128 57 128 128s-57 128-128 128zm-96-352c-71 0-128-57-128-128s57-128 128-128h512c71 0 128 57 128 128s-57 128-128 128zm-96-352c-71 0-128-57-128-128s57-128 128-128h704c71 0 128 57 128 128s-57 128-128 128z" />
        <path id="path-search" d="m416 992c-98.9 0-197-37.8-273-113-151-151-151-394 0-547 127-127 320-147 470-59.5l213-213c37.8-37.8 98.9-37.8 137 0s37.8 98.9 0 137l-213 213c87.4 148 67.5 342-59.5 470-75.2 75.2-174 113-273 113zm0-193c49.3 0 98.9-18.8 136-56.6 75.2-75.2 75.2-197 0-273-75.2-75.2-197-75.2-273 0s-75.2 197 0 273c37.8 37.8 87 56.6 136 56.6z" />
        <path id="path-trash" d="m448 992c-35.2 0-64-28.6-64-64h-224c-70.7 0-128-57.3-128-128v-32c0-17.7 14.3-32 32-32h896c17.7 0 32 14.3 32 32v32c0 70.7-57.3 128-128 128h-224c0 35.2-28.6 64-64 64zm-320-288c-17.2-0.015-30.6-14.8-28.9-31.9l49-512c6.88-72.3 67.5-127 140-127h56.6c17.5 0.01 31.5 14.5 30.8 32l-22.2 608c-0.643 17.9-15.3 32-33.3 32zm288 0c-17.5 0-31.6-14.5-31.1-32l17.8-608c0.515-17.8 15.1-32 33-32h153c17.8 0 32.3 14.2 33 32l17.8 608c0.522 17.5-13.5 32-31.1 32zm288 0c-17.9 0.01-32.6-14.1-33.3-32l-22.2-608c-0.653-17.5 13.3-32 30.8-32h56.6c72.6 0.01 133 55 140 127l49 512c1.64 17.1-11.8 31.9-28.9 31.9z" />
        <path id="path-new" d="m944 336c0.01 45.8-24.4 88-64 111l-50.9 29.4a147 147 0 0 1-73.6 19.7h-173a25.2 25.2 0 0 1-21.9-37.8l86.4-150a147 147 0 0 1 53.8-53.8l16.7-9.63c18.9-10.9 49.6-29.3 70.7-33.9 53.1-11.6 110 11.6 138 61.1 11.2 19.5 17.1 41.6 17.1 64zm-0.314 362c-1.44 19.2-7.2 37.8-16.8 54.4-35.2 61.1-114 82.2-175 46.7l-50.9-29.3a147 147 0 0 1-53.8-53.8l-86.4-150a25.2 25.2 0 0 1 21.9-37.8h173a147 147 0 0 1 73.6 19.7l50.9 29.4c42.6 24.6 67.5 71.4 63.7 120zm-305 166c0 70.7-57.3 128-128 128s-128-57.3-128-128v-58.9a147 147 0 0 1 19.7-73.6l86.4-150a25.2 25.2 0 0 1 43.8 0l86.4 150a147 147 0 0 1 19.7 73.6zm-19.7-573-86.4 150a25.2 25.2 0 0 1-43.8 0l-86.4-150a147 147 0 0 1-19.7-73.6v-58.9c0-70.7 57.3-128 128-128s128 57.3 128 128v58.9a147 147 0 0 1-19.7 73.6zm-158 273-86.4 150a147 147 0 0 1-53.8 53.8l-50.9 29.3c-61.1 35.2-140 14.4-175-46.7-35.2-61.1-14.4-140 46.7-175l50.9-29.4a147 147 0 0 1 73.6-19.7h173a25.2 25.2 0 0 1 21.9 37.8zm-21.9-69.8h-173a147 147 0 0 1-73.6-19.7l-50.9-29.4c-61.1-35.2-82.2-114-46.7-175 35.2-61.1 114-82.2 175-46.7l50.9 29.3a147 147 0 0 1 53.8 53.8l86.4 150a25.2 25.2 0 0 1-21.9 37.8z" />
        <path id="path-view-list" d="m160 288c-71 0-128-57-128-128s57-128 128-128 128 57 128 128-57 128-128 128zm0 352c-71 0-128-57-128-128s57-128 128-128 128 57 128 128-57 128-128 128zm288 352c-71 0-128-57-128-128s57-128 128-128h416c71 0 128 57 128 128s-57 128-128 128zm0-352c-71 0-128-57-128-128s57-128 128-128h416c71 0 128 57 128 128s-57 128-128 128zm0-352c-71 0-128-57-128-128s57-128 128-128h416c71 0 128 57 128 128s-57 128-128 128zm-288 704c-71 0-128-57-128-128s57-128 128-128 128 57 128 128-57 128-128 128z" />
        <path id="path-view-grid" d="m608 480h320c35.5 0 64-28.5 64-64v-320c0-35.5-28.5-64-64-64h-320c-35.5 0-64 28.5-64 64v320c0 35.5 28.5 64 64 64zm-512 0h320c35.5 0 64-28.5 64-64v-320c0-35.5-28.5-64-64-64h-320c-35.5 0-64 28.5-64 64v320c0 35.5 28.5 64 64 64zm512 512h320c35.5 0 64-28.5 64-64v-320c0-35.5-28.5-64-64-64h-320c-35.5 0-64 28.5-64 64v320c0 35.5 28.5 64 64 64zm-512 0h320c35.5 0 64-28.5 64-64v-320c0-35.5-28.5-64-64-64h-320c-35.5 0-64 28.5-64 64v320c0 35.5 28.5 64 64 64zm672-608c-71 0-128-57-128-128s57-128 128-128 128 57 128 128-57 128-128 128zm-512 0c-71 0-128-57-128-128s57-128 128-128 128 57 128 128-57 128-128 128zm512 512c-71 0-128-57-128-128s57-128 128-128 128 57 128 128-57 128-128 128zm-512 0c-71 0-128-57-128-128s57-128 128-128 128 57 128 128-57 128-128 128z" />
        <path id="path-checkbox-off" d="m96 992c-35.2 0-64-28.6-64-64v-768c0-35.2 28.6-64 64-64 0-35.2 28.6-64 64-64h768c35.2 0 64 28.6 64 64v768c0 35.2-28.6 64-64 64 0 35.2-28.6 64-64 64zm128-128h512c35.2 0 64-28.6 64-64v-512c0-35.2-28.6-64-64-64h-512c-35.2 0-64 28.6-64 64v512c0 35.2 28.6 64 64 64z" />
        <path id="path-checkbox-on" d="m96 992c-35.2 0-64-28.6-64-64v-768c0-35.2 28.6-64 64-64 0-35.2 28.6-64 64-64h768c35.2 0 64 28.6 64 64v768c0 35.2-28.6 64-64 64 0 35.2-28.6 64-64 64zm128-128h512c8.11 0 7.59-12 14.8-14.8l-383-385-208 210v126c0 35.2 28.6 64 64 64zm576-191v-385c0-35.2-28.6-64-64-64h-512c-35.2 0-64 28.6-64 64v160l208-210z" />
        <path id="path-grip" d="m192 960c-71 0-128-57-128-128s57-128 128-128 128 57 128 128-57 128-128 128zm320 0c-71 0-128-57-128-128s57-128 128-128 128 57 128 128-57 128-128 128zm320 0c-71 0-128-57-128-128s57-128 128-128 128 57 128 128-57 128-128 128zm-640-320c-71 0-128-57-128-128s57-128 128-128 128 57 128 128-57 128-128 128zm320 0c-71 0-128-57-128-128s57-128 128-128 128 57 128 128-57 128-128 128zm320 0c-71 0-128-57-128-128s57-128 128-128 128 57 128 128-57 128-128 128zm-640-320c-71 0-128-57-128-128s57-128 128-128 128 57 128 128-57 128-128 128zm320 0c-71 0-128-57-128-128s57-128 128-128 128 57 128 128-57 128-128 128zm320 0c-71 0-128-57-128-128s57-128 128-128 128 57 128 128-57 128-128 128z" />
        <path id="path-check" d="m832 931-464-467-240 242v-226l240-242 464 467" />
        <path id="path-plus" d="m512 992c-71 0-128-57-128-128v-224h-224c-71 0-128-57-128-128s57-128 128-128h224v-224c0-71 57-128 128-128s128 57 128 128v224h224c71 0 128 57 128 128s-57 128-128 128h-224v224c0 71-57 128-128 128z" />
        <path id="path-times" d="m173 864c-50.2-50.2-50.2-131 0-181l158-158-158-158c-50.2-50.2-50.2-131 0-181s131-50.2 181 0l158 158 158-158c50.2-50.2 131-50.2 181 0s50.2 131 0 181l-158 158 158 158c50.2 50.2 50.2 131 0 181s-131 50.2-181 0l-158-158-158 158c-50.2 50.2-131 50.2-181 0z" />
        <path id="path-minus" d="m160 640c-71 0-128-57-128-128s57-128 128-128h704c71 0 128 57 128 128s-57 128-128 128z" />
        <path id="path-divide" d="m512 992c-71 0-128-57-128-128s57-128 128-128 128 57 128 128-57 128-128 128zm-352-352c-71 0-128-57-128-128s57-128 128-128h704c71 0 128 57 128 128s-57 128-128 128zm352-352c-71 0-128-57-128-128s57-128 128-128 128 57 128 128-57 128-128 128z" />

        <path id="path-minimize" d="m160 288c-71 0-128-57-128-128s57-128 128-128h704c71 0 128 57 128 128s-57 128-128 128z" />
        <path id="path-maximize" d="m160 992c-71 0-128-57-128-128v-704c0-71 57-128 128-128h704c71 0 128 57 128 128v704c0 71-57 128-128 128zm0-256h704v-576h-704z" />
        <path id="path-share" d="m768 992c-124 0-224-99.8-224-224l-154-76.8c-37.4 28-83.8 44.8-134 44.8-124 0-224-99.8-224-224s99.8-224 224-224c50.6 0 97 16.7 134 44.8l154-76.8c0-124 99.8-224 224-224s224 99.8 224 224-99.8 224-224 224c-50.6 0-97-16.7-134-44.8l-154 76.8 154 76.8c37.4-28 83.8-44.8 134-44.8 124 0 224 99.8 224 224s-99.8 224-224 224zm0-112c62.1 0 112-49.9 112-112s-49.9-112-112-112-112 49.9-112 112 49.9 112 112 112zm-512-256c62.1 0 112-49.9 112-112s-49.9-112-112-112-112 49.9-112 112 49.9 112 112 112zm512-256c62.1 0 112-49.9 112-112s-49.9-112-112-112-112 49.9-112 112 49.9 112 112 112z" />
        <path id="path-upload" d="m467 960-136-136c-25-25-25-65.6 0-90.6s65.6-25 90.6 0l26.5 26.5-0.128-355c-8e-3 -37.1 28.5-65.9 64-65.9s64 28.6 64 64v0.064h0.688v358l26.5-26.5c25-25 65.6-25 90.6 0s25 65.6 0 90.6l-136 136c-12.5 12.5-28.9 18.8-45.4 18.8-16.9 0-33-6.24-45.4-18.8zm-307-237c-71 0-128-57-128-128v-448c0-71 57-128 128-128h704c71 0 128 57 128 128v448c0 71-57 128-128 128h-128v-128h128v-448h-704v448h128v128z" />
        <path id="path-download" d="m467 288-136 136c-25 25-25 65.6 0 90.6s65.6 25 90.6 0l26.5-26.5-0.128 355c-0.01 37.1 28.5 65.9 64 65.9s64.3-28.6 64.3-64l0.346-358 26.5 26.5c25 25 65.6 25 90.6 0s25-65.6 0-90.6l-136-136c-12.5-12.5-28.9-18.8-45.4-18.8-16.9 0-33 6.24-45.4 18.8zm-307 429c-71 0-128-57-128-128v-448c0-71 57-128 128-128h704c71 0 128 57 128 128v448c0 71-57 128-128 128h-128v-128h128v-448h-704v448h128v128z" />
        <path id="path-link" d="m736 992c-65.6 0-131-25-181-74.9l-88.6-88.6c54.4 7.74 110 1.44 162-18.7l16.8 16.8c49.9 49.9 131 49.9 181 0 49.9-49.9 49.9-131 0-181l-224-224c-49.9-49.9-131-49.9-181 0-16.5 16.5-27.5 36.5-33.3 57.3l-97-97c10.8-18.2 23.9-35.2 39.7-50.9 49.9-49.9 116-74.9 181-74.9s131 25 181 74.9l224 224c99.8 99.8 99.8 262 0 362-49.9 49.9-116 74.9-181 74.9zm-224-224c-65.6 0-131-25-181-74.9l-224-224c-99.8-99.8-99.8-262 0-362 49.9-49.9 116-74.9 181-74.9s131 25 181 74.9l88.6 88.6c-54.4-7.74-110-1.44-162 18.7l-16.8-16.8c-49.9-49.9-131-49.9-181 0-49.9 49.9-49.9 131 0 181l224 224c49.9 49.9 131 49.9 181 0 16.5-16.5 27.5-36.5 33.3-57.3l97 97c-10.8 18.2-23.9 35.2-39.7 50.9-49.9 49.9-116 74.9-181 74.9z" />
        <path id="path-link2" d="m704 32c-65.6 0-131 25-181 74.9l-224 224c-99.8 99.8-99.8 262 0 362 32 32 70.4 53.8 111 65.3 1.72-7.1 2.75-14.5 2.75-22.2v-115c-8.22-5.09-16-11.1-23.2-18.2-49.9-49.9-49.9-131 0-181l224-224c25-25 57.6-37.4 90.6-37.4 32.6 0 65.6 12.5 90.6 37.4 49.9 49.9 49.9 131 0 181l-183 183v170c17.8-10.6 34.6-23.6 49.9-38.7l224-224c99.8-99.8 99.8-262 0-362-49.9-49.9-116-74.9-181-74.9zm-384 131c-70.7 0-135 28.6-181 74.9-46.4 46.4-74.9 110-74.9 181v317c3e-4 141 115 256 256 256 70.7 0 135-28.6 181-74.9 46.4-46.4 74.9-110 74.9-181v-317c-3e-4 -40.3-9.41-78.7-26.1-113l-102 102c0.288 3.42 0.499 6.88 0.499 10.4v317c6e-4 70.7-57.3 128-128 128s-128-57.3-128-128v-317c-3e-4 -35.2 14.3-67.2 37.4-90.6 16.4-16.4 37.1-28.1 60.5-33.6l117-117c-27-9.7-56.3-15-86.7-15z" />
        <path id="path-radio-off" d="m480 992a448 448 0 0 1-448-448 448 448 0 0 1 165-346 448 448 0 0 1 346-165 448 448 0 0 1 448 448 448 448 0 0 1-165 346 448 448 0 0 1-346 165zm0-128a320 320 0 0 0 320-320 320 320 0 0 0-320-320 320 320 0 0 0-320 320 320 320 0 0 0 320 320z" />
        <path id="path-radio-on" d="m480 992a448 448 0 0 1-448-448 448 448 0 0 1 165-346 448 448 0 0 1 346-165 448 448 0 0 1 448 448 448 448 0 0 1-165 346 448 448 0 0 1-346 165zm0-128a320 320 0 0 0 320-320 320 320 0 0 0-320-320 320 320 0 0 0-320 320 320 320 0 0 0 320 320zm0-128a192 192 0 0 1-192-192 192 192 0 0 1 192-192 192 192 0 0 1 192 192 192 192 0 0 1-192 192z" />
        <path id="path-file" d="m 512.3,992 c -35.5,0 -67.5,-14.3 -90.9,-37.4 l -256,-256 C 142.2,675.4 128,643.6 128,607.7 157.2,646.4 203.8,672 256,672 h 96 c 53.4,0 96,42.6 96,96 v 96 c 0,52.2 25.5,98.9 64.3,128 z m 95.7,0 C 537.3,992 480,934.7 480,864 V 768 C 480,697.3 422.7,640 352,640 H 256 C 185.3,640 128,582.7 128,512 V 160 C 128,89.299998 185.3,31.999998 256,31.999998 h 512 c 70.7,0 128,57.3 128,128.000002 v 704 c 0,70.7 -57.3,128 -128,128 z" />
        <path id="path-radio-bullet" d="m480 736a192 192 0 0 0 192-192 192 192 0 0 0-192-192 192 192 0 0 0-192 192 192 192 0 0 0 192 192z" />
        <path id="path-n" d="m512 864c-16.8 0-33-6.24-45.8-18.8l-136-136c-25-25-25.1-65.6-0.064-90.6 25-25 65.6-25 90.6 0l26.6 26.4-0.32-374c0-17.7 7.17-33.6 18.8-45.1 11.6-11.6 27.6-18.8 45.1-18.8 35.2 0 64 28.6 64 64l0.803 374 26.5-26.4c25-25 65.6-25 90.6 0s25 65.6 0 90.6l-136 136c-12.5 12.5-28.7 18.8-45.4 18.8z" />
        <path id="path-e" d="m864 512c0 16.8-6.24 33-18.8 45.8l-136 136c-25 25-65.6 25.1-90.6 0.064-25-25-25-65.6 0-90.6l26.4-26.6-374 0.32c-17.7 0-33.6-7.17-45.1-18.8-11.6-11.6-18.8-27.6-18.8-45.1 0-35.2 28.6-64 64-64l374-0.803-26.4-26.5c-25-25-25-65.6 0-90.6s65.6-25 90.6 0l136 136c12.5 12.5 18.8 28.7 18.8 45.4z" />
        <path id="path-s" d="m512 160c-16.8 0-33 6.24-45.8 18.8l-136 136c-25 25-25.1 65.6-0.064 90.6 25 25 65.6 25 90.6 0l26.6-26.4-0.32 374c0 17.7 7.17 33.6 18.8 45.1 11.6 11.6 27.6 18.8 45.1 18.8 35.2 0 64-28.6 64-64l0.803-374 26.5 26.4c25 25 65.6 25 90.6 0s25-65.6 0-90.6l-136-136c-12.5-12.5-28.7-18.8-45.4-18.8z" />
        <path id="path-w" d="m160 512c0-16.8 6.24-33 18.8-45.8l136-136c25-25 65.6-25.1 90.6-0.064 25 25 25 65.6 0 90.6l-26.4 26.6 374-0.32c17.7 0 33.6 7.17 45.1 18.8 11.6 11.6 18.8 27.6 18.8 45.1 0 35.2-28.6 64-64 64l-374 0.803 26.4 26.5c25 25 25 65.6 0 90.6s-65.6 25-90.6 0l-136-136c-12.5-12.5-18.8-28.7-18.8-45.4z" />
        <path id="path-ne" d="m768 762c-11.8 11.8-27.8 19-45.4 19l-192-0.045c-35.2 0.014-64-28.6-64-64-0.022-35.2 28.6-64 64-64l37.4-0.09-265-265c-12.5-12.5-18.8-28.9-18.8-45.1 0-16.4 6.24-32.6 18.8-45.1 25-25 65.6-25 90.6 0l266 264 0.032-37.4c-0.023-35.2 28.6-64 64-64 35.2-0.023 64 28.6 64 64l0.01 192c0.028 17.7-7.01 33.6-18.9 45.4z" />
        <path id="path-se" d="m768 262c-11.8-11.8-27.8-19-45.4-19l-192 0.045c-35.2-0.014-64 28.6-64 64-0.022 35.2 28.6 64 64 64l37.4 0.09-265 265c-12.5 12.5-18.8 28.9-18.8 45.1 0 16.4 6.24 32.6 18.8 45.1 25 25 65.6 25 90.6 0l266-264 0.032 37.4c-0.023 35.2 28.6 64 64 64 35.2 0.023 64-28.6 64-64l0.01-192c0.028-17.7-7.01-33.6-18.9-45.4z" />
        <path id="path-sw" d="m256 262c11.8-11.8 27.8-19 45.4-19l192 0.045c35.2-0.014 64 28.6 64 64 0.022 35.2-28.6 64-64 64l-37.4 0.09 265 265c12.5 12.5 18.8 28.9 18.8 45.1 0 16.4-6.24 32.6-18.8 45.1-25 25-65.6 25-90.6 0l-266-264-0.032 37.4c0.023 35.2-28.6 64-64 64-35.2 0.023-64-28.6-64-64l-0.01-192c-0.028-17.7 7.01-33.6 18.9-45.4z" />
        <path id="path-nw" d="m256 762c11.8 11.8 27.8 19 45.4 19l192-0.045c35.2 0.014 64-28.6 64-64 0.022-35.2-28.6-64-64-64l-37.4-0.09 265-265c12.5-12.5 18.8-28.9 18.8-45.1 0-16.4-6.24-32.6-18.8-45.1-25-25-65.6-25-90.6 0l-266 264-0.032-37.4c0.023-35.2-28.6-64-64-64-35.2-0.023-64 28.6-64 64l-0.01 192c-0.028 17.7 7.01 33.6 18.9 45.4z" />
        <path id="path-n-s" d="m512 992c-16.8 0-33-6.24-45.8-18.8l-136-136c-25-25-25.1-65.6-0.064-90.6 25-25 65.6-25 90.6 0l26.6 26.4-0.32-148c0-17.7 7.17-33.6 18.8-45.1 11.6-11.6 27.6-18.8 45.1-18.8 35.2 0 64 28.6 64 64l0.813 148 26.5-26.4c25-25 65.6-25 90.6 0s25 65.6 0 90.6l-136 136c-12.5 12.5-28.7 18.8-45.4 18.8zm-64.6-592-0.374-148-26.5 26.4c-25 25-65.6 25-90.6 0s-25-65.6 0-90.6l136-136c12.5-12.5 28.9-18.8 45.8-18.8s33 6.27 45.4 18.8h0.064l136 136c25 25 25 65.6 0 90.6s-65.6 25-90.6 0l-26.5-26.4-0.128 148c0 35.2-28.6 64-64 64-35.2 3e-4 -64-28.6-64-64z" />
        <path id="path-w-e" d="m992 512c0 16.8-6.24 33-18.8 45.8l-136 136c-25 25-65.6 25.1-90.6 0.064-25-25-25-65.6 0-90.6l26.4-26.6-148 0.32c-17.7 0-33.6-7.17-45.1-18.8-11.6-11.6-18.8-27.6-18.8-45.1 0-35.2 28.6-64 64-64l148-0.813-26.4-26.5c-25-25-25-65.6 0-90.6s65.6-25 90.6 0l136 136c12.5 12.5 18.8 28.7 18.8 45.4zm-592 64.6-148 0.374 26.4 26.5c25 25 25 65.6 0 90.6s-65.6 25-90.6 0l-136-136c-12.5-12.5-18.8-28.9-18.8-45.8s6.27-33 18.8-45.4v-0.064l136-136c25-25 65.6-25 90.6 0s25 65.6 0 90.6l-26.4 26.5 148 0.128c35.2 0 64 28.6 64 64 3e-4 35.2-28.6 64-64 64z" />
        <path id="path-ne-sw" d="m864 851c-11.8 11.8-27.8 19-45.4 19l-192-0.045c-35.2 0.014-64-28.6-64-64-0.022-35.2 28.6-64 64-64l37.4-0.09-105-105c-12.5-12.5-18.8-28.9-18.8-45.1 0-16.4 6.24-32.6 18.8-45.1 25-25 65.6-25 90.6 0l106 104 0.032-37.4c-0.023-35.2 28.6-64 64-64 35.2-0.023 64 28.6 64 64l3e-4 192c0.029 17.7-7.01 33.6-18.9 45.4zm-464-374-105-105-0.096 37.4c0 35.2-28.7 64-64 64-35.2 0-64-28.7-64-64l0.032-192c0-17.7 7.1-33.6 18.9-45.4 11.9-11.9 27.8-19 45.4-18.9l0.032-0.045 192 0.045c35.2-0.01 64 28.7 64 64-0.01 35.2-28.7 64-64 64l-37.4 0.045 105 105c25 25 25 65.6 3e-4 90.6-25 25-65.6 25-90.6-2e-4z" />
        <path id="path-nw-se" d="m864 173c-11.8-11.8-27.8-19-45.4-19l-192 0.045c-35.2-0.014-64 28.6-64 64-0.022 35.2 28.6 64 64 64l37.4 0.09-105 105c-12.5 12.5-18.8 28.9-18.8 45.1 0 16.4 6.24 32.6 18.8 45.1 25 25 65.6 25 90.6 0l106-104 0.032 37.4c-0.023 35.2 28.6 64 64 64 35.2 0.023 64-28.6 64-64l3e-4 -192c0.029-17.7-7.01-33.6-18.9-45.4zm-464 374-105 105-0.096-37.4c0-35.2-28.7-64-64-64-35.2 0-64 28.7-64 64l0.032 192c0 17.7 7.1 33.6 18.9 45.4 11.9 11.9 27.8 19 45.4 18.9l0.032 0.045 192-0.045c35.2 0.01 64-28.7 64-64-0.01-35.2-28.7-64-64-64l-37.4-0.045 105-105c25-25 25-65.6 3e-4 -90.6-25-25-65.6-25-90.6 2e-4z" />
        <path id="path-move" d="m64.1 544c-11.6-11.6-18.8-27.6-18.8-45.1 0-35.2 28.6-64 64-64l148-0.256-26.4-26.5c-25-25-25-65.6-0.032-90.6 25-25 65.6-25 90.6 0l136 136c12.5 12.5 18.8 28.7 18.8 45.8 0 16.8-6.24 33-18.8 45.8l-136 136c-25 25-65.6 25-90.6 0s-25-65.6 0.032-90.6l26.4-26.5-148-0.288c-17.7 0-33.6-7.17-45.1-18.8zm416 416c-11.6-11.6-18.8-27.6-18.8-45.1l0.288-148-26.5 26.4c-25 25-65.6 25-90.6 0s-25-65.6 0.032-90.6l136-136c12.5-12.5 28.9-18.8 45.8-18.8s33.3 6.24 45.8 18.8l136 136c25 25 25 65.6 0 90.6s-65.6 25-90.6 0l-26.5-26.4-0.8 148c0 35.2-28.6 64-64 64-17.7-1e-4 -33.6-7.17-45.1-18.8zm-136-666c-25-25-25-65.6 0-90.6s65.6-25 90.6 0l26.5 26.4 0.39-148c0-35.2 28.6-64 64-64 35.2-3e-4 64 28.6 64 64l0.128 148 26.5-26.4c25-25 65.6-25 90.6 0.032 25 25 25 65.6 0.032 90.6l-136 136 0.032 0.032c-12.5 12.5-28.7 18.8-45.8 18.8-16.8 3e-4 -33.3-6.27-45.8-18.8zm249 249c-12.5-12.5-18.8-28.9-18.8-45.8 3e-4 -16.9 6.24-33.3 18.8-45.8l136-136c25-25 65.6-25 90.6 0s25 65.6 0.032 90.6l-26.4 26.5 148-0.064c35.2 0 64 28.6 64 64 0 35.2-28.6 64-64 64l-148 0.598 26.4 26.5c25 25 25 65.6 0 90.6s-65.6 25-90.6 0z" />
        <path id="path-move-in" d="m224 864c-16.4-3e-4 -32.6-6.24-45.1-18.8-25-25-25-65.6-3e-4 -90.6l105-105-37.4-0.064c-35.2 0.022-64-28.6-64-64-0.023-35.2 28.7-64 64-64l192-0.064c17.6-0.01 33.6 7.07 45.4 19 11.8 11.8 19 27.8 19 45.4l-0.064 192c0.022 35.2-28.7 64-64 64-35.2 0.023-64-28.7-64-64l-0.064-37.4-105 105c-12.5 12.5-28.9 18.8-45.1 18.8zm589 0c-16.4 0-32.6-6.24-45.1-18.8l-105-105-0.064 37.4c0 35.2-28.7 64-64 64-35.2 0-64-28.7-64-64l-0.064-192c0-17.7 7.17-33.6 19-45.4 11.9-11.9 27.8-19 45.4-19h192c35.2 0 64 28.7 64 64 0 35.2-28.7 64-64 64l-37.4 0.064 104 106c25 25 25 65.6 0 90.6-12.5 12.5-28.9 18.8-45.1 18.8zm-566-374c-35.2 0.023-64-28.7-64-64-0.023-35.2 28.7-64 64-64l37.4-0.064-105-105c-25-25-25-65.6 3e-4 -90.6 25-25 65.6-25 90.6 0l105 105 0.064-37.4c-0.022-35.2 28.7-64 64-64 35.2-0.023 64 28.6 64 64v192h0.032c0.022 17.7-7.07 33.6-19 45.4-11.8 11.8-27.9 19-45.4 19zm352 0c-17.7 0-33.6-7.14-45.4-19-11.9-11.9-19-27.8-19-45.4l0.064-192c0-35.2 28.6-64 64-64 35.2 0 64 28.6 64 64l0.064 37.4 105-105c25-25 65.6-25 90.6 6e-4 25 25 25 65.6 0 90.6l-104 105 37.4 0.064c35.2 0 64 28.7 64 64 0 35.2-28.7 64-64 64z" />
        <path id="path-move-diag" d="m448 512c16.4 3e-4 32.6 6.24 45.1 18.8 25 25 25 65.6 3e-4 90.6l-105 105 37.4 0.064c35.2-0.022 64 28.6 64 64 0.023 35.2-28.7 64-64 64l-192 0.064c-17.6 0.01-33.6-7.07-45.4-19-11.8-11.8-19-27.8-19-45.4l0.064-192c-0.022-35.2 28.7-64 64-64 35.2-0.023 64 28.7 64 64l0.064 37.4 105-105c12.5-12.5 28.9-18.8 45.1-18.8zm160 0c16.4 0 32.6 6.24 45.1 18.8l105 105 0.064-37.4c0-35.2 28.7-64 64-64 35.2 0 64 28.7 64 64l0.064 192c0 17.7-7.17 33.6-19 45.4-11.9 11.9-27.8 19-45.4 19h-192c-35.2 0-64-28.7-64-64 0-35.2 28.7-64 64-64l37.4-0.064-104-106c-25-25-25-65.6 0-90.6 12.5-12.5 28.9-18.8 45.1-18.8zm-182-374c35.2-0.023 64 28.7 64 64 0.023 35.2-28.7 64-64 64l-37.4 0.064 105 105c25 25 25 65.6-3e-4 90.6-25 25-65.6 25-90.6 0l-105-105-0.064 37.4c0.022 35.2-28.7 64-64 64-35.2 0.023-64-28.6-64-64v-192h-0.032c-0.022-17.7 7.07-33.6 19-45.4 11.8-11.8 27.9-19 45.4-19zm397 0c17.7 0 33.6 7.14 45.4 19 11.9 11.9 19 27.8 19 45.4l-0.064 192c0 35.2-28.6 64-64 64-35.2 0-64-28.6-64-64l-0.064-37.4-105 105c-25 25-65.6 25-90.6-6e-4 -25-25-25-65.6 0-90.6l104-105-37.4-0.064c-35.2 0-64-28.7-64-64 0-35.2 28.7-64 64-64z" />
        <path id="path-move-in-diag" d="m512 992c-16.8 0-33-6.24-45.8-18.8l-136-136c-25-25-25.1-65.6-0.064-90.6 25-25 65.6-25 90.6 0l26.6 26.4-0.32-148c0-17.7 7.17-33.6 18.8-45.1 11.6-11.6 27.6-18.8 45.1-18.8 35.2 0 64 28.6 64 64l0.813 148 26.5-26.4c25-25 65.6-25 90.6 0s25 65.6 0 90.6l-136 136c-12.5 12.5-28.7 18.8-45.4 18.8zm280-280c-16.4 0-33-6.24-45.4-18.8-25-25-25-65.6 0-90.6l26.4-26.5-148-0.624c-35.2 0-64-28.6-64-64 0-35.2 28.6-64 64-64l148 0.064-26.4-26.5c-25-25-24.9-65.6 0.064-90.6 25-25 65.6-25 90.6 0l136 136c12.5 12.5 18.8 28.7 18.8 45.4s-6.24 33-18.8 45.8l-136 136c-12.5 12.5-28.9 18.8-45.1 18.8zm-560-0.374c-16.4 0-32.6-6.24-45.1-18.8l-136-136c-12.5-12.5-18.8-28.9-18.8-45.8s6.27-33.3 18.8-45.8l136-136c25-25 65.6-25 90.6 0s25 65.6 0 90.6l-26.4 26.5 148 0.256c35.2 0 64 28.6 64 64 3e-4 17.7-7.17 33.6-18.8 45.1-11.6 11.6-27.6 18.8-45.1 18.8l-148 0.256 26.4 26.6c25 25 25 65.6 0 90.6-12.5 12.5-28.9 18.8-45.1 18.8zm280-249c-35.2 3e-4 -64-28.6-64-64l-0.374-148-26.5 26.4c-25 25-65.6 25-90.6 0s-25-65.6 0-90.6l136-136c12.5-12.5 28.9-18.8 45.8-18.8s33 6.27 45.4 18.8h0.064l136 136c25 25 25 65.6 0 90.6s-65.6 25-90.6 0l-26.5-26.4-0.128 148c0 35.2-28.6 64-64 64z" />
        <path id="path-triangle-n" d="m32 192c0-71 57-128 128-128h701c71 0 128 57 128 128 0 23.5-6.18 45.4-17.1 64.3 0 0-339 582-349 602-22.1 38.1-63.4 63.7-111 63.7s-89-25.5-111-63.7c-10.9-18.8-349-602-349-602-10.9-18.8-17.1-40.6-17.1-64.3z" />
        <path id="path-triangle-e" d="m192 992c-71 0-128-57-128-128v-701c0-71 57-128 128-128 23.5 0 45.4 6.18 64.3 17.1 0 0 582 339 602 349 38.1 22.1 63.7 63.4 63.7 111s-25.5 89-63.7 111c-18.8 10.9-602 349-602 349-18.8 10.9-40.6 17.1-64.3 17.1z" />
        <path id="path-triangle-s" d="m992 832c0 71-57 128-128 128h-701c-71 0-128-57-128-128 0-23.5 6.18-45.4 17.1-64.3 0 0 339-582 349-602 22.1-38.1 63.4-63.7 111-63.7s89 25.5 111 63.7c10.9 18.8 349 602 349 602 10.9 18.8 17.1 40.6 17.1 64.3z" />
        <path id="path-triangle-w" d="m832 32c71 0 128 57 128 128v701c0 71-57 128-128 128-23.5 0-45.4-6.18-64.3-17.1 0 0-582-339-602-349-38.1-22.1-63.7-63.4-63.7-111s25.5-89 63.7-111c18.8-10.9 602-349 602-349 18.8-10.9 40.6-17.1 64.3-17.1z" />
        <path id="path-triangle-outline-n" d="m32 192c0-71 57-128 128-128h701c71 0 128 57 128 128 0 23.5-6.18 45.4-17.1 64.3 0 0-339 582-349 602-22.1 38.1-63.4 63.7-111 63.7s-89-25.5-111-63.7c-10.9-18.8-349-602-349-602-10.9-18.8-17.1-40.6-17.1-64.3zm144 28 318 547a18.6 18.6 0 0 0 32.3-0.012l317-547a18.4 18.4 0 0 0-15.9-27.6l-637 0.339a18.4 18.4 0 0 0-15.9 27.7z" />
        <path id="path-triangle-outline-e" d="m192 992c-71 0-128-57-128-128v-701c0-71 57-128 128-128 23.5 0 45.4 6.18 64.3 17.1 0 0 582 339 602 349 38.1 22.1 63.7 63.4 63.7 111s-25.5 89-63.7 111c-18.8 10.9-602 349-602 349-18.8 10.9-40.6 17.1-64.3 17.1zm28-144 547-318a18.6 18.6 0 0 0-0.012-32.3l-547-317a18.4 18.4 0 0 0-27.6 15.9l0.339 637a18.4 18.4 0 0 0 27.7 15.9z" />
        <path id="path-triangle-outline-s" d="m32.1 832c0 71 57 128 128 128h701c71 0 128-57 128-128 0-23.5-6.18-45.4-17.1-64.3 0 0-339-582-349-602-22.1-38.1-63.4-63.7-111-63.7s-89 25.5-111 63.7c-10.9 18.8-349 602-349 602-10.9 18.8-17.1 40.6-17.1 64.3zm144-28 318-547a18.6 18.6 0 0 1 32.3 0.012l317 547a18.4 18.4 0 0 1-15.9 27.6l-637-0.339a18.4 18.4 0 0 1-15.9-27.7z" />
        <path id="path-triangle-outline-w" d="m832 32c71 0 128 57 128 128v701c0 71-57 128-128 128-23.5 0-45.4-6.18-64.3-17.1 0 0-582-339-602-349-38.1-22.1-63.7-63.4-63.7-111s25.5-89 63.7-111c18.8-10.9 602-349 602-349 18.8-10.9 40.6-17.1 64.3-17.1zm-28 144-547 318a18.6 18.6 0 0 0 0.012 32.3l547 317a18.4 18.4 0 0 0 27.6-15.9l-0.339-637a18.4 18.4 0 0 0-27.7-15.9z" />
        <path id="path-rewind" d="m864 992c-23.5 0-45.4-6.18-64.3-17.1 0 0-186-108-355-207-15.3-8.9-27.7-30.4-27.7-48v-413c0-17.7 12.4-39 27.7-48 170-98.9 355-207 355-207 18.8-10.9 40.6-17.1 64.3-17.1 71 0 128 57 128 128v701c0 71-57 128-128 128zm-704-30c-71 0-128-57-128-128v-640c0-71 57-128 128-128s128 57 128 128v640c0 71-57 128-128 128z" />
        <path id="path-ffwd" d="m160 992c23.5 0 45.4-6.18 64.3-17.1 0 0 186-108 355-207 15.3-8.9 27.7-30.4 27.7-48v-413c0-17.7-12.4-39-27.7-48-170-98.9-355-207-355-207-18.8-10.9-40.6-17.1-64.3-17.1-71 0-128 57-128 128v701c0 71 57 128 128 128zm704-30c71 0 128-57 128-128v-640c0-71-57-128-128-128s-128 57-128 128v640c0 71 57 128 128 128z" />
        <path id="path-stop" d="m192 960c-71 0-128-57-128-128v-640c0-71 57-128 128-128h640c71 0 128 57 128 128v640c0 71-57 128-128 128z" />
        <path id="path-pause" d="m192 960c-71 0-128-57-128-128v-640c0-71 57-128 128-128h128c71 0 128 57 128 128v640c0 71-57 128-128 128zm512 0c-71 0-128-57-128-128v-640c0-71 57-128 128-128h128c71 0 128 57 128 128v640c0 71-57 128-128 128z" />
        <path id="path-ud" d="m32 320c3e-4 -32.6 12.5-65.6 37.4-90.6 49.9-49.9 131-49.9 181 0l261 261 261-261c49.9-49.9 131-49.9 181 0 49.9 49.9 49.9 131 0 181l-352 352c-49.9 49.9-131 49.9-181 3e-4l-352-352c-25-25-37.4-57.6-37.4-90.6z" />
        <path id="path-gt" d="m320 992c-32.6-3e-4 -65.6-12.5-90.6-37.4-49.9-49.9-49.9-131 0-181l261-261-261-261c-49.9-49.9-49.9-131 0-181 49.9-49.9 131-49.9 181 0l352 352c49.9 49.9 49.9 131 3e-4 181l-352 352c-25 25-57.6 37.4-90.6 37.4z" />
        <path id="path-dd" d="m992 704c-3e-4 32.6-12.5 65.6-37.4 90.6-49.9 49.9-131 49.9-181 0l-261-261-261 261c-49.9 49.9-131 49.9-181 0-49.9-49.9-49.9-131 0-181l352-352c49.9-49.9 131-49.9 181-3e-4l352 352c25 25 37.4 57.6 37.4 90.6z" />
        <path id="path-lt" d="m704 32c32.6 3e-4 65.6 12.5 90.6 37.4 49.9 49.9 49.9 131 0 181l-261 261 261 261c49.9 49.9 49.9 131 0 181-49.9 49.9-131 49.9-181 0l-352-352c-49.9-49.9-49.9-131-3e-4 -181l352-352c25-25 57.6-37.4 90.6-37.4z" />
    </defs>
    <defs>
        <view id="profile" viewBox="0 0 1024 1024" />
        <view id="edit" viewBox="1024 0 1024 1024" />
        <view id="folder" viewBox="2048 0 1024 1024" />
        <view id="help" viewBox="3072 0 1024 1024" />
        <view id="view" viewBox="0 1024 1024 1024" />
        <view id="filter" viewBox="1024 1024 1024 1024" />
        <view id="sort" viewBox="2048 1024 1024 1024" />
        <view id="search" viewBox="3072 1024 1024 1024" />
        <view id="trash" viewBox="0 2048 1024 1024" />
        <view id="new" viewBox="1024 2048 1024 1024" />
        <view id="view-list" viewBox="2048 2048 1024 1024" />
        <view id="view-grid" viewBox="3072 2048 1024 1024" />
        <view id="checkbox-off" viewBox="0 3072 1024 1024" />
        <view id="checkbox-on" viewBox="1024 3072 1024 1024" />
        <view id="grip" viewBox="2048 3072 1024 1024" />
        <view id="check" viewBox="3072 3072 1024 1024" />
        <view id="plus" viewBox="0 4096 1024 1024" />
        <view id="times" viewBox="1024 4096 1024 1024" />
        <view id="minus" viewBox="2048 4096 1024 1024" />
        <view id="divide" viewBox="3072 4096 1024 1024" />
        <view id="minimize" viewBox="0 5120 1024 1024" />
        <view id="maximize" viewBox="1024 5120 1024 1024" />
        <view id="share" viewBox="2048 5120 1024 1024" />
        <view id="upload" viewBox="0 6144 1024 1024" />
        <view id="download" viewBox="1024 6144 1024 1024" />
        <view id="link" viewBox="2048 6144 1024 1024" />
        <view id="link2" viewBox="3072 6144 1024 1024" />
        <view id="radio-off" viewBox="0 7168 1024 1024" />
        <view id="radio-on" viewBox="1024 7168 1024 1024" />
        <view id="file" viewBox="2048 7168 1024 1024" />
        <view id="radio-bullet" viewBox="3072 7168 1024 1024" />
        <view id="n" viewBox="4096 0 1024 1024" />
        <view id="e" viewBox="5120 0 1024 1024" />
        <view id="s" viewBox="6144 0 1024 1024" />
        <view id="w" viewBox="7168 0 1024 1024" />
        <view id="ne" viewBox="4096 1024 1024 1024" />
        <view id="se" viewBox="5120 1024 1024 1024" />
        <view id="sw" viewBox="6144 1024 1024 1024" />
        <view id="nw" viewBox="7168 1024 1024 1024" />
        <view id="n-s" viewBox="4096 2048 1024 1024" />
        <view id="w-e" viewBox="5120 2048 1024 1024" />
        <view id="ne-sw" viewBox="6144 2048 1024 1024" />
        <view id="nw-se" viewBox="7168 2048 1024 1024" />
        <view id="move" viewBox="4096 3072 1024 1024" />
        <view id="move-in" viewBox="5120 3072 1024 1024" />
        <view id="move-diag" viewBox="6144 3072 1024 1024" />
        <view id="move-in-diag" viewBox="7168 3072 1024 1024" />
        <view id="triangle-n" viewBox="4096 4096 1024 1024" />
        <view id="triangle-e" viewBox="5120 4096 1024 1024" />
        <view id="triangle-s" viewBox="6144 4096 1024 1024" />
        <view id="triangle-w" viewBox="7168 4096 1024 1024" />
        <view id="triangle-outline-n" viewBox="4096 5120 1024 1024" />
        <view id="triangle-outline-e" viewBox="5120 5120 1024 1024" />
        <view id="triangle-outline-s" viewBox="6144 5120 1024 1024" />
        <view id="triangle-outline-w" viewBox="7168 5120 1024 1024" />
        <view id="rewind" viewBox="4096 6144 1024 1024" />
        <view id="ffwd" viewBox="5120 6144 1024 1024" />
        <view id="stop" viewBox="6144 6144 1024 1024" />
        <view id="pause" viewBox="7168 6144 1024 1024" />
        <view id="ud" viewBox="4096 7168 1024 1024" />
        <view id="gt" viewBox="5120 7168 1024 1024" />
        <view id="dd" viewBox="6144 7168 1024 1024" />
        <view id="lt" viewBox="7168 7168 1024 1024" />
    </defs>
        <use xlink:href="#path-profile" transform="matrix(1,0,0,-1,0,1024)" />
        <use xlink:href="#path-edit" transform="matrix(1,0,0,-1,1024,1024)" />
        <use xlink:href="#path-folder" transform="matrix(1,0,0,-1,2048,1024)" />
        <use xlink:href="#path-help" transform="matrix(1,0,0,-1,3072,1024)" />
        <use xlink:href="#path-view" transform="matrix(1,0,0,-1,0,2048)" />
        <use xlink:href="#path-filter" transform="matrix(1,0,0,-1,1024,2048)" />
        <use xlink:href="#path-sort" transform="matrix(1,0,0,-1,2048,2048)" />
        <use xlink:href="#path-search" transform="matrix(1,0,0,-1,3072,2048)" />
        <use xlink:href="#path-trash" transform="matrix(1,0,0,-1,0,3072)" />
        <use xlink:href="#path-new" transform="matrix(1,0,0,-1,1024,3072)" />
        <use xlink:href="#path-view-list" transform="matrix(1,0,0,-1,2048,3072)" />
        <use xlink:href="#path-view-grid" transform="matrix(1,0,0,-1,3072,3072)" />
        <use xlink:href="#path-checkbox-off" transform="matrix(1,0,0,-1,0,4096)" />
        <use xlink:href="#path-checkbox-on" transform="matrix(1,0,0,-1,1024,4096)" />
        <use xlink:href="#path-grip" transform="matrix(1,0,0,-1,2048,4096)" />
        <use xlink:href="#path-check" transform="matrix(1,0,0,-1,3072,4096)" />
        <use xlink:href="#path-plus" transform="matrix(1,0,0,-1,0,5120)" />
        <use xlink:href="#path-times" transform="matrix(1,0,0,-1,1024,5120)" />
        <use xlink:href="#path-minus" transform="matrix(1,0,0,-1,2048,5120)" />
        <use xlink:href="#path-divide" transform="matrix(1,0,0,-1,3072,5120)" />
        <use xlink:href="#path-minimize" transform="matrix(1,0,0,-1,0,6144)" />
        <use xlink:href="#path-maximize" transform="matrix(1,0,0,-1,1024,6144)" />
        <use xlink:href="#path-share" transform="matrix(1,0,0,-1,2048,6144)" />
        <use xlink:href="#path-upload" transform="matrix(1,0,0,-1,0,7168)" />
        <use xlink:href="#path-download" transform="matrix(1,0,0,-1,1024,7168)" />
        <use xlink:href="#path-link" transform="matrix(1,0,0,-1,2048,7168)" />
        <use xlink:href="#path-link2" transform="matrix(1,0,0,-1,3072,7168)" />
        <use xlink:href="#path-radio-off" transform="matrix(1,0,0,-1,0,8192)" />
        <use xlink:href="#path-radio-on" transform="matrix(1,0,0,-1,1024,8192)" />
        <use xlink:href="#path-file" transform="matrix(1,0,0,-1,2048,8192)" />
        <use xlink:href="#path-radio-bullet" transform="matrix(1,0,0,-1,3072,8192)" />
        <use xlink:href="#path-n" transform="matrix(1,0,0,-1,4096,1024)" />
        <use xlink:href="#path-e" transform="matrix(1,0,0,-1,5120,1024)" />
        <use xlink:href="#path-s" transform="matrix(1,0,0,-1,6144,1024)" />
        <use xlink:href="#path-w" transform="matrix(1,0,0,-1,7168,1024)" />
        <use xlink:href="#path-ne" transform="matrix(1,0,0,-1,4096,2048)" />
        <use xlink:href="#path-se" transform="matrix(1,0,0,-1,5120,2048)" />
        <use xlink:href="#path-sw" transform="matrix(1,0,0,-1,6144,2048)" />
        <use xlink:href="#path-nw" transform="matrix(1,0,0,-1,7168,2048)" />
        <use xlink:href="#path-n-s" transform="matrix(1,0,0,-1,4096,3072)" />
        <use xlink:href="#path-w-e" transform="matrix(1,0,0,-1,5120,3072)" />
        <use xlink:href="#path-ne-sw" transform="matrix(1,0,0,-1,6144,3072)" />
        <use xlink:href="#path-nw-se" transform="matrix(1,0,0,-1,7168,3072)" />
        <use xlink:href="#path-move" transform="matrix(1,0,0,-1,4096,4096)" />
        <use xlink:href="#path-move-in" transform="matrix(1,0,0,-1,5120,4096)" />
        <use xlink:href="#path-move-diag" transform="matrix(1,0,0,-1,6144,4096)" />
        <use xlink:href="#path-move-in-diag" transform="matrix(1,0,0,-1,7168,4096)" />
        <use xlink:href="#path-triangle-n" transform="matrix(1,0,0,-1,4096,5120)" />
        <use xlink:href="#path-triangle-e" transform="matrix(1,0,0,-1,5120,5120)" />
        <use xlink:href="#path-triangle-s" transform="matrix(1,0,0,-1,6144,5120)" />
        <use xlink:href="#path-triangle-w" transform="matrix(1,0,0,-1,7168,5120)" />
        <use xlink:href="#path-triangle-outline-n" transform="matrix(1,0,0,-1,4096,6144)" />
        <use xlink:href="#path-triangle-outline-e" transform="matrix(1,0,0,-1,5120,6144)" />
        <use xlink:href="#path-triangle-outline-s" transform="matrix(1,0,0,-1,6144,6144)" />
        <use xlink:href="#path-triangle-outline-w" transform="matrix(1,0,0,-1,7168,6144)" />
        <use xlink:href="#path-rewind" transform="matrix(1,0,0,-1,4096,7168)" />
        <use xlink:href="#path-ffwd" transform="matrix(1,0,0,-1,5120,7168)" />
        <use xlink:href="#path-stop" transform="matrix(1,0,0,-1,6144,7168)" />
        <use xlink:href="#path-pause" transform="matrix(1,0,0,-1,7168,7168)" />
        <use xlink:href="#path-ud" transform="matrix(1,0,0,-1,4096,8192)" />
        <use xlink:href="#path-gt" transform="matrix(1,0,0,-1,5120,8192)" />
        <use xlink:href="#path-dd" transform="matrix(1,0,0,-1,6144,8192)" />
        <use xlink:href="#path-lt" transform="matrix(1,0,0,-1,7168,8192)" />
</svg>