<svg width="187" height="44" fill="#015678" version="1.1" xmlns="http://www.w3.org/2000/svg">
    <path d="m22 15c-3.87 3.86e-4 -7 3.13-7 7s3.13 7 7 7c2.46 2.44e-4 4.79-1.3 6.06-3.5v-7c-1.27-2.2-3.61-3.5-6.06-3.5zm-21 7c0-11.6 9.4-21 21-21 7.37-7.38e-4 14.4 3.89 18.2 10.5l-18.2 10.5 18.2 10.5c-3.82 6.61-10.8 10.5-18.2 10.5-11.6-0.0012-21-9.4-21-21z"/>
    <path d="m115 7c-8.28 0-15 6.71-15 15 0 8.28 6.72 15 15 15s15-6.72 15-15-6.71-15-15-15zm0 10c2.76 0 5 2.24 5 5s-2.24 5-5 5-5-2.24-5-5 2.24-5 5-5z"/>
    <path d="m99 22 8e-3 15h-10l-0.0049-15c-9.04e-4 -2.77-2.24-5-5-5-2.76 0-5 2.24-5 5l0.0019 15h-10v-15c0-8.29 6.72-15 15-15 8.28 0 15 6.72 15 15z"/>
    <path d="m171 37c7.06 0 13-4.89 14.6-11.5h-11c-0.902 0.909-2.15 1.48-3.54 1.48-2.14 0-3.96-1.35-4.67-3.25h19.6c0.067-0.576 0.105-1.16 0.105-1.75 0-8.27-6.7-15-15-15-8.31 0.00425-15 6.71-15 15-0.0428 8.29 6.67 15 14.9 15zm-0.0141-20c2.14 0 3.95 1.34 4.66 3.23h-9.33c0.714-1.89 2.53-3.23 4.66-3.23z"/>
    <path d="m67.5 25.5h-11c-0.903 0.91-2.15 1.48-3.54 1.48-2.14 0-3.97-1.35-4.68-3.25h19.6c0.0671-0.576 0.105-1.16 0.105-1.75 0-8.28-6.71-15-15-15-8.32 0.00425-15 6.72-15 15-0.043 8.29 6.68 15 15 15 7.03 0.0099 13-4.88 14.6-11.5zm-14.6-8.5c2.14 0 3.96 1.34 4.67 3.23h-9.34c0.715-1.89 2.53-3.23 4.67-3.23z"/>
    <path d="m138 4.3v7.7h-7.15v10h7v15h10v-15h7v-10h-6.85v-7.7z"/>
</svg>
